<svg width="36" height="35" viewBox="0 0 36 35" fill="none" xmlns="http://www.w3.org/2000/svg">
<path d="M28 17.3283V10.5388C28 9.88489 27.9994 9.55775 27.9182 9.25347C27.8462 8.98381 27.7281 8.72863 27.5682 8.49804C27.3878 8.23783 27.1369 8.02204 26.6343 7.59144L20.6343 2.45154C19.701 1.65206 19.2344 1.25253 18.7092 1.10048C18.2465 0.966506 17.7533 0.966506 17.2905 1.10048C16.7658 1.25241 16.2998 1.65157 15.368 2.44984L9.36597 7.59144C8.8633 8.02205 8.61255 8.23783 8.43213 8.49804C8.27224 8.72863 8.15319 8.98381 8.08121 9.25347C8 9.55775 8 9.88488 8 10.5388V17.3283C8 18.4687 8 19.0387 8.1903 19.4885C8.44404 20.0882 8.9304 20.5653 9.54297 20.8137C10.0024 21 10.5848 21 11.7497 21C12.9145 21 13.4976 21 13.957 20.8137C14.5696 20.5653 15.0558 20.0883 15.3096 19.4886C15.4999 19.0388 15.5 18.4686 15.5 17.3282V16.1044C15.5 14.7526 16.6193 13.6568 18 13.6568C19.3807 13.6568 20.5 14.7526 20.5 16.1044V17.3282C20.5 18.4686 20.5 19.0388 20.6903 19.4886C20.944 20.0883 21.4304 20.5653 22.043 20.8137C22.5024 21 23.0848 21 24.2497 21C25.4145 21 25.9976 21 26.457 20.8137C27.0696 20.5653 27.5558 20.0882 27.8096 19.4885C27.9999 19.0387 28 18.4687 28 17.3283Z" fill="#B8FE22" stroke="#B8FE22" stroke-width="2" stroke-linecap="round" stroke-linejoin="round"/>
<path d="M4 35C4 32.7909 5.79086 31 8 31H28C30.2091 31 32 32.7909 32 35H4Z" fill="#B8FE22"/>
</svg>
