<svg width="65" height="64" viewBox="0 0 65 64" fill="none" xmlns="http://www.w3.org/2000/svg">
<rect width="64.5903" height="64" rx="32" fill="#2F5B6C"/>
<rect x="4" y="4" width="56.5903" height="56" rx="28" fill="#063434"/>
<path d="M42.9579 43.8799H44.4805M38.3904 43.8799H35.3453V39.3123M39.9129 39.3123H44.4805V34.7447H42.9579M35.3453 34.7447H38.3904M20.1201 39.3119C20.1201 37.8931 20.1201 37.1837 20.3519 36.6241C20.661 35.878 21.2534 35.2856 21.9995 34.9765C22.5591 34.7447 23.2685 34.7447 24.6873 34.7447C26.1061 34.7447 26.8163 34.7447 27.3759 34.9765C28.122 35.2856 28.7142 35.878 29.0233 36.6241C29.2551 37.1837 29.2551 37.8935 29.2551 39.3123C29.2551 40.7311 29.2551 41.4405 29.0233 42.0001C28.7142 42.7462 28.122 43.3389 27.3759 43.6479C26.8163 43.8797 26.1061 43.8797 24.6873 43.8797C23.2685 43.8797 22.5591 43.8797 21.9995 43.6479C21.2534 43.3389 20.661 42.7466 20.3519 42.0005C20.1201 41.4409 20.1201 40.7307 20.1201 39.3119ZM35.3453 24.0867C35.3453 22.6679 35.3453 21.9585 35.5771 21.3989C35.8862 20.6528 36.4786 20.0604 37.2247 19.7513C37.7843 19.5195 38.4937 19.5195 39.9125 19.5195C41.3313 19.5195 42.0415 19.5195 42.6011 19.7513C43.3472 20.0604 43.9395 20.6528 44.2485 21.3989C44.4803 21.9585 44.4803 22.6683 44.4803 24.0871C44.4803 25.5059 44.4803 26.2153 44.2485 26.7749C43.9395 27.521 43.3472 28.1137 42.6011 28.4227C42.0415 28.6545 41.3313 28.6545 39.9125 28.6545C38.4937 28.6545 37.7843 28.6545 37.2247 28.4227C36.4786 28.1137 35.8862 27.5214 35.5771 26.7753C35.3453 26.2157 35.3453 25.5055 35.3453 24.0867ZM20.1201 24.0867C20.1201 22.6679 20.1201 21.9585 20.3519 21.3989C20.661 20.6528 21.2534 20.0604 21.9995 19.7513C22.5591 19.5195 23.2685 19.5195 24.6873 19.5195C26.1061 19.5195 26.8163 19.5195 27.3759 19.7513C28.122 20.0604 28.7142 20.6528 29.0233 21.3989C29.2551 21.9585 29.2551 22.6683 29.2551 24.0871C29.2551 25.5059 29.2551 26.2153 29.0233 26.7749C28.7142 27.521 28.122 28.1137 27.3759 28.4227C26.8163 28.6545 26.1061 28.6545 24.6873 28.6545C23.2685 28.6545 22.5591 28.6545 21.9995 28.4227C21.2534 28.1137 20.661 27.5214 20.3519 26.7753C20.1201 26.2157 20.1201 25.5055 20.1201 24.0867Z" stroke="white" stroke-width="2" stroke-linecap="round" stroke-linejoin="round"/>
<path d="M22.8169 15.475L16.8485 15.2986C16.2965 15.2822 15.8358 15.7165 15.8194 16.2685L15.6206 22.986" stroke="#F4F4F4" stroke-width="1.5" stroke-linecap="round"/>
<path d="M41.7739 15.475L47.7423 15.2986C48.2943 15.2822 48.7551 15.7165 48.7714 16.2685L48.9702 22.986" stroke="#F4F4F4" stroke-width="1.5" stroke-linecap="round"/>
<path d="M41.7739 48.525L47.7423 48.7014C48.2943 48.7178 48.7551 48.2835 48.7714 47.7315L48.9702 41.014" stroke="#F4F4F4" stroke-width="1.5" stroke-linecap="round"/>
<path d="M22.8169 48.525L16.8485 48.7014C16.2965 48.7178 15.8358 48.2835 15.8194 47.7315L15.6206 41.014" stroke="#F4F4F4" stroke-width="1.5" stroke-linecap="round"/>
</svg>
