<svg width="16" height="17" viewBox="0 0 16 17" fill="none" xmlns="http://www.w3.org/2000/svg">
<path d="M1.5 8.72791H5.11111M1.5 8.72791C1.5 12.3178 4.41015 15.2279 8 15.2279M1.5 8.72791C1.5 5.13805 4.41015 2.22791 8 2.22791M5.11111 8.72791H10.8889M5.11111 8.72791C5.11111 12.3178 6.40451 15.2279 8 15.2279M5.11111 8.72791C5.11111 5.13805 6.40451 2.22791 8 2.22791M10.8889 8.72791H14.5M10.8889 8.72791C10.8889 5.13805 9.59549 2.22791 8 2.22791M10.8889 8.72791C10.8889 12.3178 9.59549 15.2279 8 15.2279M14.5 8.72791C14.5 5.13805 11.5899 2.22791 8 2.22791M14.5 8.72791C14.5 12.3178 11.5899 15.2279 8 15.2279" stroke="white" stroke-linecap="round" stroke-linejoin="round"/>
</svg>
