<svg width="344" height="72" viewBox="0 0 344 72" fill="none" xmlns="http://www.w3.org/2000/svg">
<g filter="url(#filter0_b_5803_24557)">
<rect width="344" height="72" rx="8" fill="white" fill-opacity="0.1"/>
<rect x="1" y="1" width="342" height="70" rx="7" stroke="#666666" stroke-width="2" stroke-dasharray="10 10"/>
<path d="M170.125 41C170.125 40.5027 170.323 40.0258 170.674 39.6742C171.026 39.3225 171.503 39.125 172 39.125C172.497 39.125 172.974 39.3225 173.326 39.6742C173.677 40.0258 173.875 40.5027 173.875 41V42.875C173.875 43.3723 173.677 43.8492 173.326 44.2008C172.974 44.5525 172.497 44.75 172 44.75C171.503 44.75 171.026 44.5525 170.674 44.2008C170.323 43.8492 170.125 43.3723 170.125 42.875V41Z" fill="white"/>
<path fill-rule="evenodd" clip-rule="evenodd" d="M165.438 30.0625C165.438 28.322 166.129 26.6528 167.36 25.4221C168.59 24.1914 170.26 23.5 172 23.5C173.74 23.5 175.41 24.1914 176.64 25.4221C177.871 26.6528 178.562 28.322 178.562 30.0625V32.4062H180.125C180.871 32.4062 181.586 32.7026 182.114 33.23C182.641 33.7575 182.938 34.4728 182.938 35.2188V42.5625C182.938 43.3422 182.784 44.1143 182.486 44.8347C182.187 45.5551 181.75 46.2096 181.198 46.7609C180.647 47.3123 179.993 47.7496 179.272 48.048C178.552 48.3464 177.78 48.5 177 48.5H167C165.425 48.5 163.915 47.8744 162.802 46.7609C161.688 45.6474 161.062 44.1372 161.062 42.5625V35.2188C161.062 34.4728 161.359 33.7575 161.886 33.23C162.414 32.7026 163.129 32.4062 163.875 32.4062H165.438V30.0625ZM167.312 32.4062H176.688V30.0625C176.688 28.8193 176.194 27.627 175.315 26.7479C174.435 25.8689 173.243 25.375 172 25.375C170.757 25.375 169.565 25.8689 168.685 26.7479C167.806 27.627 167.312 28.8193 167.312 30.0625V32.4062ZM163.875 34.2812C163.626 34.2812 163.388 34.38 163.212 34.5558C163.036 34.7317 162.938 34.9701 162.938 35.2188V42.5625C162.938 43.6399 163.366 44.6733 164.127 45.4351C164.889 46.197 165.923 46.625 167 46.625H177C178.077 46.625 179.111 46.197 179.873 45.4351C180.634 44.6733 181.062 43.6399 181.062 42.5625V35.2188C181.062 34.9701 180.964 34.7317 180.788 34.5558C180.612 34.38 180.374 34.2812 180.125 34.2812H163.875Z" fill="white"/>
</g>
<defs>
<filter id="filter0_b_5803_24557" x="-50" y="-50" width="444" height="172" filterUnits="userSpaceOnUse" color-interpolation-filters="sRGB">
<feFlood flood-opacity="0" result="BackgroundImageFix"/>
<feGaussianBlur in="BackgroundImageFix" stdDeviation="25"/>
<feComposite in2="SourceAlpha" operator="in" result="effect1_backgroundBlur_5803_24557"/>
<feBlend mode="normal" in="SourceGraphic" in2="effect1_backgroundBlur_5803_24557" result="shape"/>
</filter>
</defs>
</svg>
