<svg width="22" height="20" viewBox="0 0 22 20" fill="none" xmlns="http://www.w3.org/2000/svg">
<path d="M0.925926 19.1322L5.60067 6.65886L14.0152 14.6774L0.925926 19.1322ZM4.01126 16.192L10.6026 13.9647L6.34863 9.91083L4.01126 16.192ZM12.6595 10.7127L11.6778 9.77719L16.9136 4.78786C17.4122 4.31269 18.0121 4.0751 18.7133 4.0751C19.4145 4.0751 20.0145 4.31269 20.5131 4.78786L21.0741 5.32243L20.0924 6.25793L19.5314 5.72336C19.3133 5.51547 19.0406 5.41153 18.7133 5.41153C18.3861 5.41153 18.1134 5.51547 17.8952 5.72336L12.6595 10.7127ZM8.91974 7.14888L7.93804 6.21338L8.49901 5.67881C8.71717 5.47092 8.82624 5.21849 8.82624 4.9215C8.82624 4.62452 8.71717 4.37208 8.49901 4.1642L7.89129 3.58508L8.87299 2.64958L9.48071 3.2287C9.97935 3.70387 10.2287 4.26814 10.2287 4.9215C10.2287 5.57487 9.97935 6.13914 9.48071 6.61431L8.91974 7.14888ZM10.7896 8.93079L9.80794 7.99529L13.1738 4.78786C13.3919 4.57997 13.501 4.32011 13.501 4.00828C13.501 3.69645 13.3919 3.43659 13.1738 3.2287L11.6778 1.80317L12.6595 0.867676L14.1555 2.2932C14.6541 2.76837 14.9034 3.34007 14.9034 4.00828C14.9034 4.67649 14.6541 5.24819 14.1555 5.72336L10.7896 8.93079ZM14.5294 12.4946L13.5477 11.5591L15.0437 10.1336C15.5423 9.6584 16.1422 9.42081 16.8434 9.42081C17.5446 9.42081 18.1446 9.6584 18.6432 10.1336L20.1391 11.5591L19.1574 12.4946L17.6615 11.0691C17.4434 10.8612 17.1707 10.7572 16.8434 10.7572C16.5162 10.7572 16.2435 10.8612 16.0253 11.0691L14.5294 12.4946Z" fill="#F4F4F4"/>
</svg>
