<svg width="16" height="16" viewBox="0 0 16 16" fill="none" xmlns="http://www.w3.org/2000/svg">
<path d="M7 10.6667C7 10.4014 7.10536 10.1471 7.29289 9.95955C7.48043 9.77201 7.73478 9.66666 8 9.66666C8.26522 9.66666 8.51957 9.77201 8.70711 9.95955C8.89464 10.1471 9 10.4014 9 10.6667V11.6667C9 11.9319 8.89464 12.1862 8.70711 12.3738C8.51957 12.5613 8.26522 12.6667 8 12.6667C7.73478 12.6667 7.48043 12.5613 7.29289 12.3738C7.10536 12.1862 7 11.9319 7 11.6667V10.6667Z" fill="#F4F4F4"/>
<path fill-rule="evenodd" clip-rule="evenodd" d="M4.50033 4.83334C4.50033 3.90509 4.86907 3.01485 5.52545 2.35847C6.18183 1.70209 7.07207 1.33334 8.00033 1.33334C8.92858 1.33334 9.81882 1.70209 10.4752 2.35847C11.1316 3.01485 11.5003 3.90509 11.5003 4.83334V6.08334H12.3337C12.7315 6.08334 13.113 6.24138 13.3943 6.52268C13.6756 6.80399 13.8337 7.18552 13.8337 7.58334V11.5C13.8337 11.9159 13.7518 12.3276 13.5926 12.7118C13.4335 13.096 13.2002 13.4451 12.9062 13.7392C12.6121 14.0332 12.263 14.2665 11.8788 14.4256C11.4946 14.5848 11.0828 14.6667 10.667 14.6667H5.33366C4.49381 14.6667 3.68835 14.333 3.09449 13.7392C2.50062 13.1453 2.16699 12.3399 2.16699 11.5V7.58334C2.16699 7.18552 2.32503 6.80399 2.60633 6.52268C2.88764 6.24138 3.26917 6.08334 3.66699 6.08334H4.50033V4.83334ZM5.50033 6.08334H10.5003V4.83334C10.5003 4.1703 10.2369 3.53442 9.76809 3.06558C9.29925 2.59674 8.66337 2.33334 8.00033 2.33334C7.33728 2.33334 6.7014 2.59674 6.23256 3.06558C5.76372 3.53442 5.50033 4.1703 5.50033 4.83334V6.08334ZM3.66699 7.08334C3.53438 7.08334 3.40721 7.13602 3.31344 7.22979C3.21967 7.32356 3.16699 7.45074 3.16699 7.58334V11.5C3.16699 12.0746 3.39527 12.6257 3.80159 13.0321C4.20792 13.4384 4.75902 13.6667 5.33366 13.6667H10.667C11.2416 13.6667 11.7927 13.4384 12.1991 13.0321C12.6054 12.6257 12.8337 12.0746 12.8337 11.5V7.58334C12.8337 7.45074 12.781 7.32356 12.6872 7.22979C12.5934 7.13602 12.4663 7.08334 12.3337 7.08334H3.66699Z" fill="#F4F4F4"/>
</svg>
