<svg width="18" height="17" viewBox="0 0 18 17" fill="none" xmlns="http://www.w3.org/2000/svg">
<path d="M3.55556 16.5H14.2222V14.7222H9.77778V8.32222L11.2 9.74444L12.4444 8.5L8.88889 4.94444L5.33333 8.5L6.57778 9.74444L8 8.32222V14.7222H3.55556V16.5ZM1.77778 12.0556C1.28889 12.0556 0.870519 11.8816 0.522667 11.5338C0.174815 11.1859 0.000592593 10.7673 0 10.2778V2.27778C0 1.78889 0.174222 1.37052 0.522667 1.02267C0.871111 0.674815 1.28948 0.500593 1.77778 0.5H16C16.4889 0.5 16.9076 0.674222 17.256 1.02267C17.6044 1.37111 17.7784 1.78948 17.7778 2.27778V10.2778C17.7778 10.7667 17.6039 11.1853 17.256 11.5338C16.9081 11.8822 16.4895 12.0561 16 12.0556H11.5556V10.2778H16V2.27778H1.77778V10.2778H6.22222V12.0556H1.77778Z" fill="#F4F4F4"/>
</svg>
