<svg width="16" height="16" viewBox="0 0 16 16" fill="none" xmlns="http://www.w3.org/2000/svg">
<path d="M10.6667 1H5.33333C3 1 2 2.4 2 4.5V11.5C2 13.6 3 15 5.33333 15H10.6667C13 15 14 13.6 14 11.5V4.5C14 2.4 13 1 10.6667 1ZM5.33333 8.175H8C8.27333 8.175 8.5 8.413 8.5 8.7C8.5 8.987 8.27333 9.225 8 9.225H5.33333C5.06 9.225 4.83333 8.987 4.83333 8.7C4.83333 8.413 5.06 8.175 5.33333 8.175ZM10.6667 12.025H5.33333C5.06 12.025 4.83333 11.787 4.83333 11.5C4.83333 11.213 5.06 10.975 5.33333 10.975H10.6667C10.94 10.975 11.1667 11.213 11.1667 11.5C11.1667 11.787 10.94 12.025 10.6667 12.025ZM12.3333 6.075H11C9.98667 6.075 9.16667 5.214 9.16667 4.15V2.75C9.16667 2.463 9.39333 2.225 9.66667 2.225C9.94 2.225 10.1667 2.463 10.1667 2.75V4.15C10.1667 4.633 10.54 5.025 11 5.025H12.3333C12.6067 5.025 12.8333 5.263 12.8333 5.55C12.8333 5.837 12.6067 6.075 12.3333 6.075Z" fill="#EDE7FF"/>
</svg>
