<svg width="24" height="25" viewBox="0 0 24 25" fill="none" xmlns="http://www.w3.org/2000/svg">
<path d="M14.5556 16.3889V17.1667C14.5556 18.4553 13.5109 19.5 12.2222 19.5C10.9336 19.5 9.88889 18.4553 9.88889 17.1667V16.3889M14.5556 16.3889H9.88889M14.5556 16.3889H17.3482C17.6457 16.3889 17.7952 16.3889 17.9156 16.3483C18.1457 16.2706 18.3258 16.0899 18.4034 15.8598C18.4442 15.7389 18.4442 15.5889 18.4442 15.2891C18.4442 15.1578 18.4441 15.0922 18.4338 15.0297C18.4144 14.9115 18.3685 14.7994 18.2987 14.7021C18.2617 14.6506 18.2148 14.6037 18.1223 14.5112L17.8193 14.2082C17.7216 14.1105 17.6667 13.9779 17.6667 13.8396V10.9444C17.6667 7.93756 15.2291 5.49999 12.2222 5.5C9.21534 5.50001 6.77778 7.93757 6.77778 10.9444V13.8397C6.77778 13.9779 6.72275 14.1105 6.625 14.2082L6.32205 14.5112C6.22926 14.604 6.18281 14.6506 6.14583 14.7021C6.07595 14.7994 6.02967 14.9115 6.01027 15.0297C6 15.0922 6 15.1579 6 15.2891C6 15.589 6 15.7389 6.0408 15.8598C6.11842 16.0899 6.29929 16.2706 6.52941 16.3483C6.64988 16.3889 6.79879 16.3889 7.09632 16.3889H9.88889" stroke="#F4F4F4" stroke-width="1.5" stroke-linecap="round" stroke-linejoin="round"/>
<g clip-path="url(#clip0_12259_1717)">
<rect x="12" y="1.5" width="10" height="10" rx="5" fill="#55A6C4"/>
<path d="M14.8044 8.212V7.66L17.6124 3.772H18.4844V7.58H19.2844V8.212H18.4844V9.5H17.7644V8.212H14.8044ZM17.7964 4.532L15.6444 7.58H17.7964V4.532Z" fill="white"/>
</g>
<defs>
<clipPath id="clip0_12259_1717">
<rect x="12" y="1.5" width="10" height="10" rx="5" fill="white"/>
</clipPath>
</defs>
</svg>
