<svg width="16" height="17" viewBox="0 0 16 17" fill="none" xmlns="http://www.w3.org/2000/svg">
<path d="M2.4 7.99106L2.0605 8.08022C1.75762 8.15991 1.48874 8.34388 1.29659 8.60289C1.10444 8.86189 1.00005 9.18107 1 9.50969V10.8927C1.00005 11.2214 1.10444 11.5406 1.29659 11.7996C1.48874 12.0586 1.75762 12.2425 2.0605 12.3222L3.2785 12.6427C3.34039 12.659 3.40498 12.6601 3.46737 12.6462C3.52975 12.6322 3.5883 12.6035 3.63856 12.5621C3.68882 12.5208 3.72948 12.468 3.75746 12.4076C3.78543 12.3473 3.79998 12.281 3.8 12.2139V8.18854C3.8 8.12132 3.78545 8.05498 3.75743 7.99458C3.72942 7.93417 3.68869 7.88128 3.63835 7.83994C3.588 7.79859 3.52936 7.76987 3.46688 7.75597C3.4044 7.74206 3.33974 7.74334 3.2778 7.75969L2.4 7.99106ZM2.4 7.99106V7.62264C2.4 6.05926 2.99 4.55991 4.0402 3.45443C5.09041 2.34896 6.51479 1.72791 8 1.72791C9.48521 1.72791 10.9096 2.34896 11.9598 3.45443C13.01 4.55991 13.6 6.05926 13.6 7.62264V7.99106M13.6 7.99106L13.9395 8.08022C14.2424 8.15991 14.5113 8.34388 14.7034 8.60289C14.8956 8.86189 15 9.18107 15 9.50969V10.8927C15 11.2214 14.8956 11.5406 14.7034 11.7996C14.5113 12.0586 14.2424 12.2425 13.9395 12.3222L13.6 12.4121M13.6 7.99106L12.7215 7.75969C12.6596 7.74347 12.595 7.7423 12.5326 7.75626C12.4702 7.77023 12.4117 7.79897 12.3614 7.8403C12.3112 7.88163 12.2705 7.93447 12.2425 7.99481C12.2146 8.05515 12.2 8.1214 12.2 8.18854V12.2139C12.2 12.281 12.2146 12.3473 12.2425 12.4076C12.2705 12.468 12.3112 12.5208 12.3614 12.5621C12.4117 12.6035 12.4702 12.6322 12.5326 12.6462C12.595 12.6601 12.6596 12.659 12.7215 12.6427L13.6 12.4121M13.6 12.4121V13.149C13.6 13.5398 13.4525 13.9146 13.1899 14.191C12.9274 14.4674 12.5713 14.6226 12.2 14.6226H10.1M10.1 14.6226C10.1 14.3295 9.98938 14.0484 9.79246 13.8411C9.59555 13.6338 9.32848 13.5174 9.05 13.5174H6.95C6.67152 13.5174 6.40445 13.6338 6.20754 13.8411C6.01062 14.0484 5.9 14.3295 5.9 14.6226C5.9 14.9158 6.01062 15.1969 6.20754 15.4042C6.40445 15.6115 6.67152 15.7279 6.95 15.7279H9.05C9.32848 15.7279 9.59555 15.6115 9.79246 15.4042C9.98938 15.1969 10.1 14.9158 10.1 14.6226Z" stroke="#F4F4F4" stroke-width="1.5"/>
</svg>
