<svg width="18" height="16" viewBox="0 0 18 16" fill="none" xmlns="http://www.w3.org/2000/svg">
<path d="M13.3373 14.3333C13.3373 12.8606 11.3621 11.6667 8.92555 11.6667C6.489 11.6667 4.51379 12.8606 4.51379 14.3333M16.8667 11.667C16.8667 10.5735 15.7778 9.63372 14.2197 9.22222M0.984375 11.667C0.984375 10.5735 2.07328 9.63372 3.63143 9.22222M14.2197 5.65432C14.7612 5.16603 15.102 4.45644 15.102 3.66667C15.102 2.19391 13.9169 1 12.455 1C11.777 1 11.1586 1.25676 10.6903 1.67902M3.63143 5.65432C3.08989 5.16603 2.74908 4.45644 2.74908 3.66667C2.74908 2.19391 3.93421 1 5.39614 1C6.0741 1 6.69253 1.25676 7.16085 1.67902M8.92555 9C7.46362 9 6.27849 7.80609 6.27849 6.33333C6.27849 4.86057 7.46362 3.66667 8.92555 3.66667C10.3875 3.66667 11.5726 4.86057 11.5726 6.33333C11.5726 7.80609 10.3875 9 8.92555 9Z" stroke="white" stroke-width="1.25" stroke-linecap="round" stroke-linejoin="round"/>
</svg>
