<svg width="19" height="20" viewBox="0 0 19 20" fill="none" xmlns="http://www.w3.org/2000/svg">
<path d="M13.1203 4.61095C13.1203 6.45186 11.6016 7.9719 9.74065 7.9719C7.87975 7.9719 6.36102 6.45186 6.36102 4.61095C6.36102 2.77004 7.87975 1.25 9.74065 1.25C11.6016 1.25 13.1203 2.77004 13.1203 4.61095ZM1.73139 16.1383C1.73139 15.8388 1.87352 15.4792 2.34102 15.0511C2.81601 14.6161 3.5339 14.2037 4.42426 13.8483C6.20703 13.1367 8.36449 12.7774 9.74065 12.7774C11.1168 12.7774 13.2743 13.1367 15.057 13.8483C15.9474 14.2037 16.6653 14.6161 17.1403 15.0511C17.6078 15.4792 17.7499 15.8388 17.7499 16.1383V16.1384V16.1384V16.1384V16.1384V16.1385V16.1385V16.1386V16.1386V16.1387V16.1387V16.1388V16.1389V16.139V16.1391V16.1392V16.1393V16.1394V16.1395V16.1396V16.1397V16.1399V16.14V16.1402V16.1403V16.1405V16.1407V16.1408V16.141V16.1412V16.1414V16.1416V16.1419V16.1421V16.1423V16.1425V16.1428V16.1431V16.1433V16.1436V16.1439V16.1442V16.1445V16.1448V16.1451V16.1454V16.1457V16.1461V16.1464V16.1468V16.1472V16.1475V16.1479V16.1483V16.1487V16.1491V16.1495V16.15V16.1504V16.1509V16.1513V16.1518V16.1523V16.1528V16.1533V16.1538V16.1543V16.1548V16.1554V16.1559V16.1565V16.1571V16.1576V16.1582V16.1588V16.1595V16.1601V16.1607V16.1614V16.162V16.1627V16.1634V16.1641V16.1648V16.1655V16.1662V16.167V16.1677V16.1685V16.1692V16.17V16.1708V16.1716V16.1724V16.1733V16.1741V16.175V16.1759V16.1767V16.1776V16.1785V16.1795V16.1804V16.1813V16.1823V16.1833V16.1842V16.1852V16.1863V16.1873V16.1883V16.1894V16.1904V16.1915V16.1926V16.1937V16.1948V16.196V16.1971V16.1983V16.1994V16.2006V16.2018V16.203V16.2043V16.2055V16.2068V16.208V16.2093V16.2106V16.212V16.2133V16.2146V16.216V16.2174V16.2188V16.2202V16.2216V16.223V16.2245V16.226V16.2274V16.2289V16.2305V16.232V16.2335V16.2351V16.2367V16.2383V16.2399V16.2415V16.2432V16.2448V16.2465V16.2482V16.2499V16.2516V16.2534V16.2551V16.2569V16.2587V16.2605V16.2623V16.2642V16.266V16.2679V16.2698V16.2717V16.2737V16.2756V16.2776V16.2796V16.2816V16.2836V16.2856V16.2877V16.2897V16.2918V16.2939V16.2961V16.2982V16.3004V16.3026V16.3048V16.307V16.3092V16.3115V16.3138V16.316V16.3184V16.3207V16.323V16.3254V16.3278V16.3302V16.3327V16.3351V16.3376V16.3401V16.3426V16.3451V16.3476V16.3502V16.3528V16.3554V16.358V16.3607V16.3633V16.366V16.3687V16.3715V16.3742V16.377V16.3798V16.3826V16.3854V16.3883V16.3912V16.3941V16.397V16.3999V16.4029V16.4059V16.4089V16.4119V16.4149V16.418V16.4211V16.4242V16.4273V16.4305V16.4337V16.4369V16.4401V16.4433V16.4466V16.4499V16.4532V16.4565V16.4599V16.4633V16.4667V16.4701V16.4735V16.477V16.4805V16.484V16.4875V16.4911V16.4947V16.4983V16.5019V16.5056V16.5093V16.513V16.5167V16.5204V16.5242V16.528V16.5318V16.5357V16.5396V16.5435V16.5474V16.5513V16.5553V16.5593V16.5633V16.5673V16.5714V16.5755V16.5796V16.5838V16.5879V16.5921V16.5963V16.6006V16.6048V16.6091V16.6134V16.6178V16.6222V16.6266V16.631V16.6354V16.6399V16.6444V16.6489V16.6535V16.658V16.6627V16.6673V16.6719V16.6766V16.6813V16.6861V16.6908V16.6956V16.7004V16.7053V16.7101V16.715V16.72V16.7249V16.7299V16.7349V16.7399V16.745V16.7501V16.7552V16.7603V16.7655V16.7707V16.7759V16.7812V16.7865V16.7918V16.7971V16.8025V16.8079V16.8133V16.8188V16.8243V16.8298V16.8353V16.8409V16.8465V16.8521V16.8578V16.8634V16.8692V16.8749V16.8807V16.8865V16.8923V16.8982V16.9041V16.91V16.9159V16.9219V16.9279V16.9339V16.94V16.9461V16.9522V16.9584V16.9646V16.9708V16.9771V16.9833V16.9897V16.996V17.0024V17.0088V17.0152V17.0217V17.0282V17.0347V17.0413V17.0478V17.0545V17.0611V17.0678V17.0745V17.0813V17.088V17.0949V17.1017V17.1086V17.1155V17.1224V17.1294V17.1364V17.1434V17.1505V17.1576V17.1647V17.1719V17.1791V17.1863V17.1936V17.2009V17.2082V17.2156V17.223V17.2304V17.2379V17.2454V17.2529V17.2604V17.268V17.2757V17.2833V17.291V17.2988V17.3065V17.3143V17.3221V17.33V17.3379V17.3458V17.3538V17.3618V17.3698V17.3779V17.386V17.3942V17.4023V17.4105V17.4188V17.4271V17.4354V17.4437V17.4521V17.4605V17.469V17.4775V17.486V17.4946V17.5032V17.5118V17.5205V17.5292V17.5379V17.5467V17.5555V17.5644V17.5732V17.5822V17.5911V17.6001V17.6091V17.6182V17.6273V17.6364V17.6456V17.6548V17.6641V17.6734V17.6827V17.6921V17.7015V17.7109V17.7204V17.7299V17.7394V17.749V17.7586V17.7683V17.778V17.7877V17.7975V17.8073V17.8172V17.827V17.837V17.8469V17.8569V17.867V17.8771V17.8872V17.8973V17.9075V17.9178V17.928V17.9384V17.9487V17.9591V17.9601C17.3704 18.1049 16.7552 18.2502 15.9217 18.3747C14.2683 18.6217 12.0202 18.75 9.74065 18.75C7.46113 18.75 5.21299 18.6217 3.5596 18.3747C2.7261 18.2502 2.11084 18.1049 1.73139 17.9601V17.9591V17.9487V17.9384V17.928V17.9178V17.9075V17.8973V17.8872V17.8771V17.867V17.8569V17.8469V17.837V17.827V17.8172V17.8073V17.7975V17.7877V17.778V17.7683V17.7586V17.749V17.7394V17.7299V17.7204V17.7109V17.7015V17.6921V17.6827V17.6734V17.6641V17.6548V17.6456V17.6364V17.6273V17.6182V17.6091V17.6001V17.5911V17.5822V17.5732V17.5644V17.5555V17.5467V17.5379V17.5292V17.5205V17.5118V17.5032V17.4946V17.486V17.4775V17.469V17.4605V17.4521V17.4437V17.4354V17.4271V17.4188V17.4105V17.4023V17.3942V17.386V17.3779V17.3698V17.3618V17.3538V17.3458V17.3379V17.33V17.3221V17.3143V17.3065V17.2988V17.291V17.2833V17.2757V17.268V17.2604V17.2529V17.2454V17.2379V17.2304V17.223V17.2156V17.2082V17.2009V17.1936V17.1863V17.1791V17.1719V17.1647V17.1576V17.1505V17.1434V17.1364V17.1294V17.1224V17.1155V17.1086V17.1017V17.0949V17.088V17.0813V17.0745V17.0678V17.0611V17.0545V17.0478V17.0413V17.0347V17.0282V17.0217V17.0152V17.0088V17.0024V16.996V16.9897V16.9833V16.9771V16.9708V16.9646V16.9584V16.9522V16.9461V16.94V16.9339V16.9279V16.9219V16.9159V16.91V16.9041V16.8982V16.8923V16.8865V16.8807V16.8749V16.8692V16.8634V16.8578V16.8521V16.8465V16.8409V16.8353V16.8298V16.8243V16.8188V16.8133V16.8079V16.8025V16.7971V16.7918V16.7865V16.7812V16.7759V16.7707V16.7655V16.7603V16.7552V16.7501V16.745V16.7399V16.7349V16.7299V16.7249V16.72V16.715V16.7101V16.7053V16.7004V16.6956V16.6908V16.6861V16.6813V16.6766V16.6719V16.6673V16.6627V16.658V16.6535V16.6489V16.6444V16.6399V16.6354V16.631V16.6266V16.6222V16.6178V16.6134V16.6091V16.6048V16.6006V16.5963V16.5921V16.5879V16.5838V16.5796V16.5755V16.5714V16.5673V16.5633V16.5593V16.5553V16.5513V16.5474V16.5435V16.5396V16.5357V16.5318V16.528V16.5242V16.5204V16.5167V16.513V16.5093V16.5056V16.5019V16.4983V16.4947V16.4911V16.4875V16.484V16.4805V16.477V16.4735V16.4701V16.4667V16.4633V16.4599V16.4565V16.4532V16.4499V16.4466V16.4433V16.4401V16.4369V16.4337V16.4305V16.4273V16.4242V16.4211V16.418V16.4149V16.4119V16.4089V16.4059V16.4029V16.3999V16.397V16.3941V16.3912V16.3883V16.3854V16.3826V16.3798V16.377V16.3742V16.3715V16.3687V16.366V16.3633V16.3607V16.358V16.3554V16.3528V16.3502V16.3476V16.3451V16.3426V16.3401V16.3376V16.3351V16.3327V16.3302V16.3278V16.3254V16.323V16.3207V16.3184V16.316V16.3138V16.3115V16.3092V16.307V16.3048V16.3026V16.3004V16.2982V16.2961V16.2939V16.2918V16.2897V16.2877V16.2856V16.2836V16.2816V16.2796V16.2776V16.2756V16.2737V16.2717V16.2698V16.2679V16.266V16.2642V16.2623V16.2605V16.2587V16.2569V16.2551V16.2534V16.2516V16.2499V16.2482V16.2465V16.2448V16.2432V16.2415V16.2399V16.2383V16.2367V16.2351V16.2335V16.232V16.2305V16.2289V16.2274V16.226V16.2245V16.223V16.2216V16.2202V16.2188V16.2174V16.216V16.2146V16.2133V16.212V16.2106V16.2093V16.208V16.2068V16.2055V16.2043V16.203V16.2018V16.2006V16.1994V16.1983V16.1971V16.196V16.1948V16.1937V16.1926V16.1915V16.1904V16.1894V16.1883V16.1873V16.1863V16.1852V16.1842V16.1833V16.1823V16.1813V16.1804V16.1795V16.1785V16.1776V16.1767V16.1759V16.175V16.1741V16.1733V16.1724V16.1716V16.1708V16.17V16.1692V16.1685V16.1677V16.167V16.1662V16.1655V16.1648V16.1641V16.1634V16.1627V16.162V16.1614V16.1607V16.1601V16.1595V16.1588V16.1582V16.1576V16.1571V16.1565V16.1559V16.1554V16.1548V16.1543V16.1538V16.1533V16.1528V16.1523V16.1518V16.1513V16.1509V16.1504V16.15V16.1495V16.1491V16.1487V16.1483V16.1479V16.1475V16.1472V16.1468V16.1464V16.1461V16.1457V16.1454V16.1451V16.1448V16.1445V16.1442V16.1439V16.1436V16.1433V16.1431V16.1428V16.1425V16.1423V16.1421V16.1419V16.1416V16.1414V16.1412V16.141V16.1408V16.1407V16.1405V16.1403V16.1402V16.14V16.1399V16.1397V16.1396V16.1395V16.1394V16.1393V16.1392V16.1391V16.139V16.1389V16.1388V16.1387V16.1387V16.1386V16.1386V16.1385V16.1385V16.1384V16.1384V16.1384V16.1384V16.1383Z" stroke="#F4F4F4" stroke-width="2.5"/>
</svg>
