<svg width="35" height="36" viewBox="0 0 35 36" fill="none" xmlns="http://www.w3.org/2000/svg">
<path d="M20.6388 12.611C20.6388 14.4519 19.1201 15.9719 17.2592 15.9719C15.3983 15.9719 13.8795 14.4519 13.8795 12.611C13.8795 10.77 15.3983 9.25 17.2592 9.25C19.1201 9.25 20.6388 10.77 20.6388 12.611ZM9.24991 24.1383C9.24991 23.8388 9.39205 23.4792 9.85954 23.0511C10.3345 22.6161 11.0524 22.2037 11.9428 21.8483C13.7256 21.1367 15.883 20.7774 17.2592 20.7774C18.6353 20.7774 20.7928 21.1367 22.5756 21.8483C23.4659 22.2037 24.1838 22.6161 24.6588 23.0511C25.1263 23.4792 25.2684 23.8388 25.2684 24.1383V24.1384V24.1384V24.1384V24.1384V24.1385V24.1385V24.1386V24.1386V24.1387V24.1387V24.1388V24.1389V24.139V24.1391V24.1392V24.1393V24.1394V24.1395V24.1396V24.1397V24.1399V24.14V24.1402V24.1403V24.1405V24.1407V24.1408V24.141V24.1412V24.1414V24.1416V24.1419V24.1421V24.1423V24.1425V24.1428V24.1431V24.1433V24.1436V24.1439V24.1442V24.1445V24.1448V24.1451V24.1454V24.1457V24.1461V24.1464V24.1468V24.1472V24.1475V24.1479V24.1483V24.1487V24.1491V24.1495V24.15V24.1504V24.1509V24.1513V24.1518V24.1523V24.1528V24.1533V24.1538V24.1543V24.1548V24.1554V24.1559V24.1565V24.1571V24.1576V24.1582V24.1588V24.1595V24.1601V24.1607V24.1614V24.162V24.1627V24.1634V24.1641V24.1648V24.1655V24.1662V24.167V24.1677V24.1685V24.1692V24.17V24.1708V24.1716V24.1724V24.1733V24.1741V24.175V24.1759V24.1767V24.1776V24.1785V24.1795V24.1804V24.1813V24.1823V24.1833V24.1842V24.1852V24.1863V24.1873V24.1883V24.1894V24.1904V24.1915V24.1926V24.1937V24.1948V24.196V24.1971V24.1983V24.1994V24.2006V24.2018V24.203V24.2043V24.2055V24.2068V24.208V24.2093V24.2106V24.212V24.2133V24.2146V24.216V24.2174V24.2188V24.2202V24.2216V24.223V24.2245V24.226V24.2274V24.2289V24.2305V24.232V24.2335V24.2351V24.2367V24.2383V24.2399V24.2415V24.2432V24.2448V24.2465V24.2482V24.2499V24.2516V24.2534V24.2551V24.2569V24.2587V24.2605V24.2623V24.2642V24.266V24.2679V24.2698V24.2717V24.2737V24.2756V24.2776V24.2796V24.2816V24.2836V24.2856V24.2877V24.2897V24.2918V24.2939V24.2961V24.2982V24.3004V24.3026V24.3048V24.307V24.3092V24.3115V24.3138V24.316V24.3184V24.3207V24.323V24.3254V24.3278V24.3302V24.3327V24.3351V24.3376V24.3401V24.3426V24.3451V24.3476V24.3502V24.3528V24.3554V24.358V24.3607V24.3633V24.366V24.3687V24.3715V24.3742V24.377V24.3798V24.3826V24.3854V24.3883V24.3912V24.3941V24.397V24.3999V24.4029V24.4059V24.4089V24.4119V24.4149V24.418V24.4211V24.4242V24.4273V24.4305V24.4337V24.4369V24.4401V24.4433V24.4466V24.4499V24.4532V24.4565V24.4599V24.4633V24.4667V24.4701V24.4735V24.477V24.4805V24.484V24.4875V24.4911V24.4947V24.4983V24.5019V24.5056V24.5093V24.513V24.5167V24.5204V24.5242V24.528V24.5318V24.5357V24.5396V24.5435V24.5474V24.5513V24.5553V24.5593V24.5633V24.5673V24.5714V24.5755V24.5796V24.5838V24.5879V24.5921V24.5963V24.6006V24.6048V24.6091V24.6134V24.6178V24.6222V24.6266V24.631V24.6354V24.6399V24.6444V24.6489V24.6535V24.658V24.6627V24.6673V24.6719V24.6766V24.6813V24.6861V24.6908V24.6956V24.7004V24.7053V24.7101V24.715V24.72V24.7249V24.7299V24.7349V24.7399V24.745V24.7501V24.7552V24.7603V24.7655V24.7707V24.7759V24.7812V24.7865V24.7918V24.7971V24.8025V24.8079V24.8133V24.8188V24.8243V24.8298V24.8353V24.8409V24.8465V24.8521V24.8578V24.8634V24.8692V24.8749V24.8807V24.8865V24.8923V24.8982V24.9041V24.91V24.9159V24.9219V24.9279V24.9339V24.94V24.9461V24.9522V24.9584V24.9646V24.9708V24.9771V24.9833V24.9897V24.996V25.0024V25.0088V25.0152V25.0217V25.0282V25.0347V25.0413V25.0478V25.0545V25.0611V25.0678V25.0745V25.0813V25.088V25.0949V25.1017V25.1086V25.1155V25.1224V25.1294V25.1364V25.1434V25.1505V25.1576V25.1647V25.1719V25.1791V25.1863V25.1936V25.2009V25.2082V25.2156V25.223V25.2304V25.2379V25.2454V25.2529V25.2604V25.268V25.2757V25.2833V25.291V25.2988V25.3065V25.3143V25.3221V25.33V25.3379V25.3458V25.3538V25.3618V25.3698V25.3779V25.386V25.3942V25.4023V25.4105V25.4188V25.4271V25.4354V25.4437V25.4521V25.4605V25.469V25.4775V25.486V25.4946V25.5032V25.5118V25.5205V25.5292V25.5379V25.5467V25.5555V25.5644V25.5732V25.5822V25.5911V25.6001V25.6091V25.6182V25.6273V25.6364V25.6456V25.6548V25.6641V25.6734V25.6827V25.6921V25.7015V25.7109V25.7204V25.7299V25.7394V25.749V25.7586V25.7683V25.778V25.7877V25.7975V25.8073V25.8172V25.827V25.837V25.8469V25.8569V25.867V25.8771V25.8872V25.8973V25.9075V25.9178V25.928V25.9384V25.9487V25.9591V25.9601C24.889 26.1049 24.2737 26.2502 23.4402 26.3747C21.7868 26.6217 19.5387 26.75 17.2592 26.75C14.9797 26.75 12.7315 26.6217 11.0781 26.3747C10.2446 26.2502 9.62937 26.1049 9.24991 25.9601V25.9591V25.9487V25.9384V25.928V25.9178V25.9075V25.8973V25.8872V25.8771V25.867V25.8569V25.8469V25.837V25.827V25.8172V25.8073V25.7975V25.7877V25.778V25.7683V25.7586V25.749V25.7394V25.7299V25.7204V25.7109V25.7015V25.6921V25.6827V25.6734V25.6641V25.6548V25.6456V25.6364V25.6273V25.6182V25.6091V25.6001V25.5911V25.5822V25.5732V25.5644V25.5555V25.5467V25.5379V25.5292V25.5205V25.5118V25.5032V25.4946V25.486V25.4775V25.469V25.4605V25.4521V25.4437V25.4354V25.4271V25.4188V25.4105V25.4023V25.3942V25.386V25.3779V25.3698V25.3618V25.3538V25.3458V25.3379V25.33V25.3221V25.3143V25.3065V25.2988V25.291V25.2833V25.2757V25.268V25.2604V25.2529V25.2454V25.2379V25.2304V25.223V25.2156V25.2082V25.2009V25.1936V25.1863V25.1791V25.1719V25.1647V25.1576V25.1505V25.1434V25.1364V25.1294V25.1224V25.1155V25.1086V25.1017V25.0949V25.088V25.0813V25.0745V25.0678V25.0611V25.0545V25.0478V25.0413V25.0347V25.0282V25.0217V25.0152V25.0088V25.0024V24.996V24.9897V24.9833V24.9771V24.9708V24.9646V24.9584V24.9522V24.9461V24.94V24.9339V24.9279V24.9219V24.9159V24.91V24.9041V24.8982V24.8923V24.8865V24.8807V24.8749V24.8692V24.8634V24.8578V24.8521V24.8465V24.8409V24.8353V24.8298V24.8243V24.8188V24.8133V24.8079V24.8025V24.7971V24.7918V24.7865V24.7812V24.7759V24.7707V24.7655V24.7603V24.7552V24.7501V24.745V24.7399V24.7349V24.7299V24.7249V24.72V24.715V24.7101V24.7053V24.7004V24.6956V24.6908V24.6861V24.6813V24.6766V24.6719V24.6673V24.6627V24.658V24.6535V24.6489V24.6444V24.6399V24.6354V24.631V24.6266V24.6222V24.6178V24.6134V24.6091V24.6048V24.6006V24.5963V24.5921V24.5879V24.5838V24.5796V24.5755V24.5714V24.5673V24.5633V24.5593V24.5553V24.5513V24.5474V24.5435V24.5396V24.5357V24.5318V24.528V24.5242V24.5204V24.5167V24.513V24.5093V24.5056V24.5019V24.4983V24.4947V24.4911V24.4875V24.484V24.4805V24.477V24.4735V24.4701V24.4667V24.4633V24.4599V24.4565V24.4532V24.4499V24.4466V24.4433V24.4401V24.4369V24.4337V24.4305V24.4273V24.4242V24.4211V24.418V24.4149V24.4119V24.4089V24.4059V24.4029V24.3999V24.397V24.3941V24.3912V24.3883V24.3854V24.3826V24.3798V24.377V24.3742V24.3715V24.3687V24.366V24.3633V24.3607V24.358V24.3554V24.3528V24.3502V24.3476V24.3451V24.3426V24.3401V24.3376V24.3351V24.3327V24.3302V24.3278V24.3254V24.323V24.3207V24.3184V24.316V24.3138V24.3115V24.3092V24.307V24.3048V24.3026V24.3004V24.2982V24.2961V24.2939V24.2918V24.2897V24.2877V24.2856V24.2836V24.2816V24.2796V24.2776V24.2756V24.2737V24.2717V24.2698V24.2679V24.266V24.2642V24.2623V24.2605V24.2587V24.2569V24.2551V24.2534V24.2516V24.2499V24.2482V24.2465V24.2448V24.2432V24.2415V24.2399V24.2383V24.2367V24.2351V24.2335V24.232V24.2305V24.2289V24.2274V24.226V24.2245V24.223V24.2216V24.2202V24.2188V24.2174V24.216V24.2146V24.2133V24.212V24.2106V24.2093V24.208V24.2068V24.2055V24.2043V24.203V24.2018V24.2006V24.1994V24.1983V24.1971V24.196V24.1948V24.1937V24.1926V24.1915V24.1904V24.1894V24.1883V24.1873V24.1863V24.1852V24.1842V24.1833V24.1823V24.1813V24.1804V24.1795V24.1785V24.1776V24.1767V24.1759V24.175V24.1741V24.1733V24.1724V24.1716V24.1708V24.17V24.1692V24.1685V24.1677V24.167V24.1662V24.1655V24.1648V24.1641V24.1634V24.1627V24.162V24.1614V24.1607V24.1601V24.1595V24.1588V24.1582V24.1576V24.1571V24.1565V24.1559V24.1554V24.1548V24.1543V24.1538V24.1533V24.1528V24.1523V24.1518V24.1513V24.1509V24.1504V24.15V24.1495V24.1491V24.1487V24.1483V24.1479V24.1475V24.1472V24.1468V24.1464V24.1461V24.1457V24.1454V24.1451V24.1448V24.1445V24.1442V24.1439V24.1436V24.1433V24.1431V24.1428V24.1425V24.1423V24.1421V24.1419V24.1416V24.1414V24.1412V24.141V24.1408V24.1407V24.1405V24.1403V24.1402V24.14V24.1399V24.1397V24.1396V24.1395V24.1394V24.1393V24.1392V24.1391V24.139V24.1389V24.1388V24.1387V24.1387V24.1386V24.1386V24.1385V24.1385V24.1384V24.1384V24.1384V24.1384V24.1383Z" stroke="#F4F4F4" stroke-width="2.5"/>
</svg>
