<svg width="19" height="17" viewBox="0 0 19 17" fill="none" xmlns="http://www.w3.org/2000/svg">
<path d="M5.91762 4.52941V2.76471C5.91762 2.29668 6.10355 1.84782 6.43449 1.51687C6.76544 1.18592 7.2143 1 7.68233 1H11.2117C11.6798 1 12.1286 1.18592 12.4596 1.51687C12.7905 1.84782 12.9764 2.29668 12.9764 2.76471V4.52941M9.44704 8.94118V8.95M1.50586 9.82351C3.96902 11.0647 6.68883 11.7112 9.44704 11.7112C12.2052 11.7112 14.9251 11.0647 17.3882 9.82351M1.50586 6.29412C1.50586 5.82609 1.69178 5.37723 2.02273 5.04628C2.35368 4.71534 2.80254 4.52941 3.27057 4.52941H15.6235C16.0915 4.52941 16.5404 4.71534 16.8713 5.04628C17.2023 5.37723 17.3882 5.82609 17.3882 6.29412V14.2353C17.3882 14.7033 17.2023 15.1522 16.8713 15.4831C16.5404 15.8141 16.0915 16 15.6235 16H3.27057C2.80254 16 2.35368 15.8141 2.02273 15.4831C1.69178 15.1522 1.50586 14.7033 1.50586 14.2353V6.29412Z" stroke="#F4F4F4" stroke-width="1.5" stroke-linecap="round" stroke-linejoin="round"/>
</svg>
