<svg width="17" height="15" viewBox="0 0 17 15" fill="none" xmlns="http://www.w3.org/2000/svg">
<path d="M5.88965 7.5L7.4845 9.0125L10.6808 5.9875" stroke="white" stroke-linecap="round" stroke-linejoin="round"/>
<path d="M7.45803 1.53125C7.91465 1.1625 8.66244 1.1625 9.12568 1.53125L10.1713 2.38125C10.3698 2.54375 10.7404 2.675 11.0051 2.675H12.1301C12.8316 2.675 13.4073 3.21875 13.4073 3.88125V4.94375C13.4073 5.1875 13.5463 5.54375 13.7183 5.73125L14.6183 6.71875C15.0088 7.15 15.0088 7.85625 14.6183 8.29375L13.7183 9.28125C13.5463 9.46875 13.4073 9.81875 13.4073 10.0687V11.1312C13.4073 11.7937 12.8316 12.3375 12.1301 12.3375H11.0051C10.747 12.3375 10.3698 12.4687 10.1713 12.6312L9.12568 13.4812C8.66906 13.85 7.92127 13.85 7.45803 13.4812L6.41244 12.6312C6.21391 12.4687 5.84332 12.3375 5.57862 12.3375H4.43377C3.7323 12.3375 3.15656 11.7937 3.15656 11.1312V10.0625C3.15656 9.81875 3.01759 9.46875 2.85215 9.28125L1.95877 8.2875C1.57494 7.85625 1.57494 7.15625 1.95877 6.725L2.85215 5.73125C3.01759 5.54375 3.15656 5.19375 3.15656 4.95V3.875C3.15656 3.2125 3.7323 2.66875 4.43377 2.66875H5.57862C5.83671 2.66875 6.21391 2.5375 6.41244 2.375L7.45803 1.53125Z" stroke="white" stroke-linecap="round" stroke-linejoin="round"/>
</svg>
