<svg width="17" height="15" viewBox="0 0 17 15" fill="none" xmlns="http://www.w3.org/2000/svg">
<path d="M2.51074 13.5156H13.8232C14.0107 13.5156 14.167 13.3594 14.167 13.1719V12.3281H2.16699V13.1719C2.16699 13.3906 2.32324 13.5156 2.51074 13.5156ZM14.7295 3.51562C14.1982 3.51562 13.792 3.92188 13.792 4.45312C13.792 4.70312 13.8857 4.95312 14.0732 5.10937L11.2607 7.98438L8.60449 3.23438C8.88574 3.07813 9.07324 2.76562 9.07324 2.42188C9.07324 1.89062 8.66699 1.48438 8.13574 1.48438C7.60449 1.48438 7.19824 1.89062 7.19824 2.42188C7.19824 2.76562 7.38574 3.07813 7.66699 3.23438L5.01074 7.98438L2.19824 5.10937C2.44824 4.95312 2.54199 4.70312 2.54199 4.45312C2.54199 3.92188 2.13574 3.51562 1.60449 3.51562C1.07324 3.51562 0.666992 3.92188 0.666992 4.45312C0.666992 4.98438 1.07324 5.39063 1.60449 5.39063C1.63574 5.39063 1.66699 5.39063 1.66699 5.39063L2.16699 11.7656H14.167L14.667 5.39063C14.6982 5.39063 14.7295 5.39063 14.7295 5.39063C15.2607 5.39063 15.667 4.98438 15.667 4.45312C15.667 3.95312 15.2607 3.51562 14.7295 3.51562Z" fill="white"/>
</svg>
