<svg width="17" height="16" viewBox="0 0 17 16" fill="none" xmlns="http://www.w3.org/2000/svg">
<path d="M6.70252 0C4.88976 0 3.39095 1.43568 3.39095 3.24324C3.39095 5.05081 4.88976 6.48649 6.70252 6.48649C8.51528 6.48649 10.0141 5.05081 10.0141 3.24324C10.0141 1.43568 8.51528 0 6.70252 0ZM4.68825 3.24324C4.68825 2.18465 5.57387 1.2973 6.70252 1.2973C7.83117 1.2973 8.71679 2.18465 8.71679 3.24324C8.71679 4.30184 7.83117 5.18919 6.70252 5.18919C5.57387 5.18919 4.68825 4.30184 4.68825 3.24324ZM4.18317 8.31135C4.23852 8.29578 4.35787 8.30184 4.51528 8.40303C4.95809 8.69016 5.72609 9.06897 6.70252 9.06897C7.67895 9.06897 8.44695 8.69016 8.89063 8.40303C9.0463 8.30184 9.16652 8.29578 9.22187 8.31049C9.34584 8.34508 9.46922 8.38198 9.59203 8.42119L10.4439 8.69362C10.6061 8.74027 10.78 8.72192 10.9288 8.64245C11.0776 8.56298 11.1896 8.42865 11.2411 8.26797C11.2925 8.10729 11.2793 7.93289 11.2042 7.78178C11.1292 7.63067 10.9983 7.51475 10.8392 7.45859L9.98814 7.1853C9.84803 7.1409 9.70735 7.0991 9.56609 7.05989C9.03679 6.91459 8.5343 7.08843 8.18576 7.31416C7.86576 7.52173 7.34339 7.77168 6.70252 7.77168C6.06252 7.77168 5.53928 7.52087 5.21928 7.3133C4.87074 7.08843 4.36825 6.91459 3.83895 7.05989C3.69769 7.0991 3.55701 7.1409 3.4169 7.1853L2.56587 7.45859C2.08244 7.60983 1.64089 7.87162 1.27624 8.22321C0.911593 8.5748 0.633877 9.00651 0.465115 9.48411C0.40025 9.67438 0.372574 9.85773 0.357007 10.0065L0.020574 13.1831C-0.117804 14.2011 0.446952 15.2484 1.5609 15.507C2.59787 15.7475 4.26533 16 6.70252 16C6.87455 16 7.03954 15.9317 7.16118 15.81C7.28283 15.6884 7.35117 15.5234 7.35117 15.3514C7.35117 15.1793 7.28283 15.0143 7.16118 14.8927C7.03954 14.771 6.87455 14.7027 6.70252 14.7027C4.35528 14.7027 2.78641 14.4605 1.85495 14.2443C1.48566 14.1578 1.24263 13.8093 1.30663 13.3535L1.30836 13.3423L1.64652 10.1423C1.65863 10.035 1.67247 9.96238 1.69149 9.90789C1.79428 9.6208 1.96253 9.36159 2.1829 9.15082C2.40328 8.94005 2.66972 8.78351 2.96111 8.69362L3.81301 8.42119C3.93582 8.38198 4.0592 8.34595 4.18317 8.31135ZM15.8095 11.9178C15.8733 11.8585 15.9244 11.7868 15.9598 11.7073C15.9953 11.6277 16.0144 11.5418 16.0159 11.4547C16.0174 11.3676 16.0014 11.2811 15.9688 11.2003C15.9362 11.1196 15.8876 11.0462 15.826 10.9846C15.7644 10.923 15.691 10.8745 15.6103 10.8418C15.5295 10.8092 15.443 10.7932 15.3559 10.7947C15.2688 10.7963 15.1829 10.8153 15.1034 10.8508C15.0238 10.8862 14.9522 10.9374 14.8928 11.0011L11.8917 14.0022L10.6204 12.7308C10.561 12.6671 10.4894 12.616 10.4098 12.5805C10.3302 12.5451 10.2443 12.526 10.1572 12.5245C10.0701 12.5229 9.98364 12.5389 9.90287 12.5716C9.8221 12.6042 9.74873 12.6528 9.68714 12.7143C9.62554 12.7759 9.57698 12.8493 9.54436 12.9301C9.51174 13.0108 9.49571 13.0974 9.49725 13.1845C9.49879 13.2715 9.51785 13.3574 9.5533 13.437C9.58876 13.5166 9.63987 13.5882 9.7036 13.6476L11.8917 15.8357L15.8095 11.9178Z" fill="#F4F4F4"/>
</svg>
