<svg width="16" height="16" viewBox="0 0 16 16" fill="none" xmlns="http://www.w3.org/2000/svg">
<path d="M9.02546 0.560329L15.8414 11.7325C15.9453 11.9029 16 12.0961 16 12.2929C16 12.4896 15.9453 12.6828 15.8414 12.8532C15.7374 13.0235 15.588 13.165 15.408 13.2634C15.2279 13.3617 15.0238 13.4135 14.8159 13.4135H1.18411C0.97625 13.4135 0.772056 13.3617 0.592049 13.2634C0.412042 13.165 0.262563 13.0235 0.158637 12.8532C0.0547105 12.6828 -1.32011e-06 12.4896 0 12.2929C1.32016e-06 12.0961 0.0547158 11.9029 0.158644 11.7325L6.97454 0.560329C7.43004 -0.186776 8.56917 -0.186776 9.02546 0.560329ZM8 1.86776L1.86775 11.9193H14.1323L8 1.86776ZM8 9.41502C8.20937 9.41502 8.41016 9.49373 8.55821 9.63384C8.70625 9.77395 8.78942 9.96398 8.78942 10.1621C8.78942 10.3603 8.70625 10.5503 8.55821 10.6904C8.41016 10.8305 8.20937 10.9092 8 10.9092C7.79063 10.9092 7.58984 10.8305 7.44179 10.6904C7.29375 10.5503 7.21057 10.3603 7.21057 10.1621C7.21057 9.96398 7.29375 9.77395 7.44179 9.63384C7.58984 9.49373 7.79063 9.41502 8 9.41502ZM8 4.18528C8.20937 4.18528 8.41016 4.264 8.55821 4.4041C8.70625 4.54421 8.78942 4.73424 8.78942 4.93239V7.92081C8.78942 8.11895 8.70625 8.30898 8.55821 8.44909C8.41016 8.5892 8.20937 8.66791 8 8.66791C7.79063 8.66791 7.58984 8.5892 7.44179 8.44909C7.29375 8.30898 7.21057 8.11895 7.21057 7.92081V4.93239C7.21057 4.73424 7.29375 4.54421 7.44179 4.4041C7.58984 4.264 7.79063 4.18528 8 4.18528Z" fill="white"/>
</svg>
