<svg width="12" height="12" viewBox="0 0 12 12" fill="none" xmlns="http://www.w3.org/2000/svg">
<path d="M7.06737 1.72209L7.97781 3.49644C8.10196 3.74344 8.43303 3.98035 8.71238 4.02572L10.3626 4.29288C11.4178 4.46427 11.6661 5.21029 10.9057 5.94625L9.62282 7.19635C9.40555 7.40807 9.28658 7.81637 9.35382 8.10873L9.72111 9.65625C10.0108 10.8812 9.34348 11.355 8.23129 10.7148L6.68457 9.82259C6.40523 9.66129 5.94483 9.66129 5.66032 9.82259L4.11358 10.7148C3.00656 11.355 2.33408 10.8761 2.62376 9.65625L2.99104 8.10873C3.05829 7.81637 2.93931 7.40807 2.72205 7.19635L1.43915 5.94625C0.683896 5.21029 0.927026 4.46427 1.98231 4.29288L3.63249 4.02572C3.90666 3.98035 4.23773 3.74344 4.36188 3.49644L5.27234 1.72209C5.76895 0.759303 6.57593 0.759303 7.06737 1.72209Z" fill="url(#paint0_linear_6634_3737)" stroke="#55A6C4" stroke-width="0.5" stroke-linecap="round" stroke-linejoin="round"/>
<defs>
<linearGradient id="paint0_linear_6634_3737" x1="1.01347" y1="6" x2="13.5162" y2="6" gradientUnits="userSpaceOnUse">
<stop offset="0.40625" stop-color="#55A6C4"/>
<stop offset="0.40635" stop-color="white"/>
</linearGradient>
</defs>
</svg>
