<svg width="21" height="20" viewBox="0 0 21 20" fill="none" xmlns="http://www.w3.org/2000/svg">
<path d="M12.1088 2.29976L13.7476 5.49359C13.971 5.93819 14.567 6.36463 15.0698 6.4463L18.0401 6.92718C19.9396 7.23568 20.3866 8.57853 19.0178 9.90324L16.7086 12.1534C16.3175 12.5345 16.1033 13.2695 16.2244 13.7957L16.8855 16.5812C17.4069 18.7861 16.2058 19.639 14.2038 18.4867L11.4197 16.8807C10.9169 16.5903 10.0882 16.5903 9.57607 16.8807L6.79195 18.4867C4.79931 19.639 3.58884 18.777 4.11027 16.5812L4.77138 13.7957C4.89243 13.2695 4.67827 12.5345 4.28719 12.1534L1.97797 9.90324C0.618513 8.57853 1.05615 7.23568 2.95566 6.92718L5.92599 6.4463C6.41949 6.36463 7.01542 5.93819 7.23889 5.49359L8.87772 2.29976C9.77161 0.566746 11.2242 0.566746 12.1088 2.29976Z" fill="url(#paint0_linear_6634_3702)" stroke="#55A6C4" stroke-width="0.5" stroke-linecap="round" stroke-linejoin="round"/>
<defs>
<linearGradient id="paint0_linear_6634_3702" x1="1.21175" y1="10" x2="23.7167" y2="10" gradientUnits="userSpaceOnUse">
<stop offset="0.55" stop-color="#55A6C4"/>
<stop offset="0.6" stop-color="white"/>
</linearGradient>
</defs>
</svg>
