<svg width="341" height="45" viewBox="0 0 341 45" fill="none" xmlns="http://www.w3.org/2000/svg">
<rect width="341" height="45" rx="8" fill="#B8FE22"/>
<path d="M140.317 27.098C139.663 27.098 139.075 26.986 138.553 26.762C138.03 26.5287 137.619 26.202 137.321 25.782C137.022 25.362 136.873 24.872 136.873 24.312H138.581C138.618 24.732 138.781 25.0773 139.071 25.348C139.369 25.6187 139.785 25.754 140.317 25.754C140.867 25.754 141.297 25.6233 141.605 25.362C141.913 25.0913 142.067 24.746 142.067 24.326C142.067 23.9993 141.969 23.7333 141.773 23.528C141.586 23.3227 141.348 23.164 141.059 23.052C140.779 22.94 140.387 22.8187 139.883 22.688C139.248 22.52 138.73 22.352 138.329 22.184C137.937 22.0067 137.601 21.736 137.321 21.372C137.041 21.008 136.901 20.5227 136.901 19.916C136.901 19.356 137.041 18.866 137.321 18.446C137.601 18.026 137.993 17.704 138.497 17.48C139.001 17.256 139.584 17.144 140.247 17.144C141.189 17.144 141.959 17.382 142.557 17.858C143.163 18.3247 143.499 18.9687 143.565 19.79H141.801C141.773 19.4353 141.605 19.132 141.297 18.88C140.989 18.628 140.583 18.502 140.079 18.502C139.621 18.502 139.248 18.6187 138.959 18.852C138.669 19.0853 138.525 19.4213 138.525 19.86C138.525 20.1587 138.613 20.406 138.791 20.602C138.977 20.7887 139.211 20.938 139.491 21.05C139.771 21.162 140.153 21.2833 140.639 21.414C141.283 21.5913 141.805 21.7687 142.207 21.946C142.617 22.1233 142.963 22.3987 143.243 22.772C143.532 23.136 143.677 23.626 143.677 24.242C143.677 24.7367 143.541 25.2033 143.271 25.642C143.009 26.0807 142.622 26.4353 142.109 26.706C141.605 26.9673 141.007 27.098 140.317 27.098ZM145.028 23.108C145.028 22.3333 145.186 21.6473 145.504 21.05C145.83 20.4527 146.269 19.9907 146.82 19.664C147.38 19.328 147.996 19.16 148.668 19.16C149.274 19.16 149.802 19.2813 150.25 19.524C150.707 19.7573 151.071 20.0513 151.342 20.406V19.286H152.952V27H151.342V25.852C151.071 26.216 150.702 26.5193 150.236 26.762C149.769 27.0047 149.237 27.126 148.64 27.126C147.977 27.126 147.37 26.958 146.82 26.622C146.269 26.2767 145.83 25.8007 145.504 25.194C145.186 24.578 145.028 23.8827 145.028 23.108ZM151.342 23.136C151.342 22.604 151.23 22.142 151.006 21.75C150.791 21.358 150.506 21.0593 150.152 20.854C149.797 20.6487 149.414 20.546 149.004 20.546C148.593 20.546 148.21 20.6487 147.856 20.854C147.501 21.05 147.212 21.344 146.988 21.736C146.773 22.1187 146.666 22.576 146.666 23.108C146.666 23.64 146.773 24.1067 146.988 24.508C147.212 24.9093 147.501 25.2173 147.856 25.432C148.22 25.6373 148.602 25.74 149.004 25.74C149.414 25.74 149.797 25.6373 150.152 25.432C150.506 25.2267 150.791 24.928 151.006 24.536C151.23 24.1347 151.342 23.668 151.342 23.136ZM158.03 25.572L160.214 19.286H161.908L158.968 27H157.064L154.138 19.286H155.846L158.03 25.572ZM170.184 22.954C170.184 23.2433 170.166 23.5047 170.128 23.738H164.234C164.281 24.354 164.51 24.8487 164.92 25.222C165.331 25.5953 165.835 25.782 166.432 25.782C167.291 25.782 167.898 25.4227 168.252 24.704H169.974C169.741 25.4133 169.316 25.9967 168.7 26.454C168.094 26.902 167.338 27.126 166.432 27.126C165.695 27.126 165.032 26.9627 164.444 26.636C163.866 26.3 163.408 25.8333 163.072 25.236C162.746 24.6293 162.582 23.9293 162.582 23.136C162.582 22.3427 162.741 21.6473 163.058 21.05C163.385 20.4433 163.838 19.9767 164.416 19.65C165.004 19.3233 165.676 19.16 166.432 19.16C167.16 19.16 167.809 19.3187 168.378 19.636C168.948 19.9533 169.391 20.4013 169.708 20.98C170.026 21.5493 170.184 22.2073 170.184 22.954ZM168.518 22.45C168.509 21.862 168.299 21.3907 167.888 21.036C167.478 20.6813 166.969 20.504 166.362 20.504C165.812 20.504 165.34 20.6813 164.948 21.036C164.556 21.3813 164.323 21.8527 164.248 22.45H168.518ZM182.196 20.168C182.196 20.6627 182.079 21.1293 181.846 21.568C181.612 22.0067 181.239 22.366 180.726 22.646C180.212 22.9167 179.554 23.052 178.752 23.052H176.988V27H175.392V17.27H178.752C179.498 17.27 180.128 17.4007 180.642 17.662C181.164 17.914 181.552 18.2593 181.804 18.698C182.065 19.1367 182.196 19.6267 182.196 20.168ZM178.752 21.75C179.358 21.75 179.811 21.6147 180.11 21.344C180.408 21.064 180.558 20.672 180.558 20.168C180.558 19.104 179.956 18.572 178.752 18.572H176.988V21.75H178.752ZM185.314 16.64V27H183.718V16.64H185.314ZM186.877 23.108C186.877 22.3333 187.036 21.6473 187.353 21.05C187.68 20.4527 188.119 19.9907 188.669 19.664C189.229 19.328 189.845 19.16 190.517 19.16C191.124 19.16 191.651 19.2813 192.099 19.524C192.557 19.7573 192.921 20.0513 193.191 20.406V19.286H194.801V27H193.191V25.852C192.921 26.216 192.552 26.5193 192.085 26.762C191.619 27.0047 191.087 27.126 190.489 27.126C189.827 27.126 189.22 26.958 188.669 26.622C188.119 26.2767 187.68 25.8007 187.353 25.194C187.036 24.578 186.877 23.8827 186.877 23.108ZM193.191 23.136C193.191 22.604 193.079 22.142 192.855 21.75C192.641 21.358 192.356 21.0593 192.001 20.854C191.647 20.6487 191.264 20.546 190.853 20.546C190.443 20.546 190.06 20.6487 189.705 20.854C189.351 21.05 189.061 21.344 188.837 21.736C188.623 22.1187 188.515 22.576 188.515 23.108C188.515 23.64 188.623 24.1067 188.837 24.508C189.061 24.9093 189.351 25.2173 189.705 25.432C190.069 25.6373 190.452 25.74 190.853 25.74C191.264 25.74 191.647 25.6373 192.001 25.432C192.356 25.2267 192.641 24.928 192.855 24.536C193.079 24.1347 193.191 23.668 193.191 23.136ZM200.79 19.16C201.396 19.16 201.938 19.286 202.414 19.538C202.899 19.79 203.277 20.1633 203.548 20.658C203.818 21.1527 203.954 21.75 203.954 22.45V27H202.372V22.688C202.372 21.9973 202.199 21.47 201.854 21.106C201.508 20.7327 201.037 20.546 200.44 20.546C199.842 20.546 199.366 20.7327 199.012 21.106C198.666 21.47 198.494 21.9973 198.494 22.688V27H196.898V19.286H198.494V20.168C198.755 19.8507 199.086 19.6033 199.488 19.426C199.898 19.2487 200.332 19.16 200.79 19.16Z" fill="#121212"/>
</svg>
