<svg width="42" height="41" viewBox="0 0 42 41" fill="none" xmlns="http://www.w3.org/2000/svg">
<rect x="0.5" width="41" height="41" rx="20.5" fill="#56B33D"/>
<path d="M8.40741 33.1837L14.2508 15.8597L24.769 26.9965L8.40741 33.1837ZM12.2641 29.1002L20.5033 26.0066L15.1858 20.3763L12.2641 29.1002ZM23.0744 21.49L21.8473 20.1907L28.3919 13.261C29.0152 12.6011 29.7651 12.2711 30.6417 12.2711C31.5182 12.2711 32.2681 12.6011 32.8914 13.261L33.5926 14.0035L32.3655 15.3028L31.6643 14.5604C31.3916 14.2716 31.0507 14.1273 30.6417 14.1273C30.2326 14.1273 29.8918 14.2716 29.6191 14.5604L23.0744 21.49ZM18.3997 16.5402L17.1726 15.2409L17.8738 14.4985C18.1465 14.2097 18.2828 13.8591 18.2828 13.4467C18.2828 13.0342 18.1465 12.6836 17.8738 12.3948L17.1141 11.5905L18.3412 10.2912L19.1009 11.0955C19.7242 11.7555 20.0358 12.5392 20.0358 13.4467C20.0358 14.3541 19.7242 15.1378 19.1009 15.7978L18.3997 16.5402ZM20.737 19.0151L19.5099 17.7158L23.7172 13.261C23.9899 12.9723 24.1262 12.6114 24.1262 12.1783C24.1262 11.7452 23.9899 11.3843 23.7172 11.0955L21.8473 9.11565L23.0744 7.81635L24.9443 9.79624C25.5676 10.4562 25.8793 11.2502 25.8793 12.1783C25.8793 13.1064 25.5676 13.9004 24.9443 14.5604L20.737 19.0151ZM25.4118 23.9648L24.1847 22.6655L26.0546 20.6856C26.6779 20.0257 27.4278 19.6957 28.3043 19.6957C29.1808 19.6957 29.9307 20.0257 30.554 20.6856L32.4239 22.6655L31.1968 23.9648L29.3269 21.9849C29.0542 21.6962 28.7133 21.5518 28.3043 21.5518C27.8953 21.5518 27.5544 21.6962 27.2817 21.9849L25.4118 23.9648Z" fill="#F4F4F4"/>
</svg>
