<svg width="40" height="40" viewBox="0 0 40 40" fill="none" xmlns="http://www.w3.org/2000/svg">
<rect width="40" height="40" rx="20" fill="#B8FE22"/>
<path d="M12.4583 28H27.5417C27.7917 28 28 27.7922 28 27.5429V26.4208H12V27.5429C12 27.8338 12.2083 28 12.4583 28ZM28.75 14.7013C28.0417 14.7013 27.5 15.2416 27.5 15.9481C27.5 16.2805 27.625 16.613 27.875 16.8208L24.125 20.6442L20.5833 14.3273C20.9583 14.1195 21.2083 13.7039 21.2083 13.2468C21.2083 12.5403 20.6667 12 19.9583 12C19.25 12 18.7083 12.5403 18.7083 13.2468C18.7083 13.7039 18.9583 14.1195 19.3333 14.3273L15.7917 20.6442L12.0417 16.8208C12.375 16.613 12.5 16.2805 12.5 15.9481C12.5 15.2416 11.9583 14.7013 11.25 14.7013C10.5417 14.7013 10 15.2416 10 15.9481C10 16.6545 10.5417 17.1948 11.25 17.1948C11.2917 17.1948 11.3333 17.1948 11.3333 17.1948L12 25.6727H28L28.6667 17.1948C28.7083 17.1948 28.75 17.1948 28.75 17.1948C29.4583 17.1948 30 16.6545 30 15.9481C30 15.2831 29.4583 14.7013 28.75 14.7013Z" fill="#666666"/>
</svg>
