<svg width="15" height="15" viewBox="0 0 15 15" fill="none" xmlns="http://www.w3.org/2000/svg">
<path d="M10.9882 1.22283L10.9919 1.21912C11.1907 1.02036 11.3084 0.903508 11.4021 0.823942C11.4533 0.780485 11.4799 0.763697 11.4887 0.758691C11.5279 0.747106 11.5697 0.747103 11.609 0.758684C11.6177 0.763695 11.6443 0.78045 11.6953 0.82374C11.7889 0.903168 11.9063 1.01982 12.1048 1.21831L12.6308 0.692365L12.1048 1.21831L13.7792 2.89269C13.9785 3.092 14.0957 3.21003 14.1755 3.30403C14.2193 3.35557 14.2361 3.3823 14.2411 3.39107C14.2527 3.43032 14.2527 3.47214 14.2411 3.51147C14.2361 3.52024 14.2193 3.54688 14.1757 3.5982C14.0969 3.69105 13.9815 3.80738 13.7863 4.00268L13.7862 4.00267L13.7792 4.00969L11.0184 6.77047L3.53893 14.25L0.75 14.25V11.4611L8.22952 3.98154L7.69919 3.45121L8.22952 3.98154L10.9882 1.22281L10.9882 1.22283ZM14.2429 3.39439C14.2428 3.39436 14.2426 3.39395 14.2423 3.39317L14.2429 3.39439Z" stroke="#F4F4F4" stroke-width="1.5" stroke-linecap="round" stroke-linejoin="round"/>
</svg>
