<svg width="17" height="16" viewBox="0 0 17 16" fill="none" xmlns="http://www.w3.org/2000/svg">
<path d="M2.88281 2H14.8828M5.06463 2V4.72727C5.06463 6.36364 7.7919 6.49182 7.7919 8C7.7919 9.50818 5.06463 9.63636 5.06463 11.2727V14M12.701 2V4.72727C12.701 6.36364 9.97372 6.49182 9.97372 8C9.97372 9.50818 12.701 9.63636 12.701 11.2727V14M2.88281 14H14.8828M7.7919 3.90909H9.97372V4.72727C9.97372 5.27273 8.88281 5.81818 8.88281 5.81818C8.88281 5.81818 7.7919 5.27273 7.7919 4.72727V3.90909ZM6.70099 12.9091C6.70099 11.8182 8.88281 10.7273 8.88281 10.7273C8.88281 10.7273 11.0646 11.8182 11.0646 12.9091V14H6.70099V12.9091Z" stroke="#F4F4F4"/>
</svg>
