<svg width="18" height="15" viewBox="0 0 18 15" fill="none" xmlns="http://www.w3.org/2000/svg">
<path d="M13.6752 14.1667C13.6752 12.6939 11.7 11.5 9.26344 11.5C6.82689 11.5 4.85168 12.6939 4.85168 14.1667M17.2046 11.5003C17.2046 10.4068 16.1157 9.46705 14.5576 9.05556M1.32227 11.5003C1.32227 10.4068 2.41117 9.46705 3.96932 9.05556M14.5576 5.48765C15.0991 4.99937 15.4399 4.28978 15.4399 3.5C15.4399 2.02724 14.2548 0.833336 12.7929 0.833336C12.1149 0.833336 11.4965 1.09009 11.0281 1.51235M3.96932 5.48765C3.42778 4.99937 3.08697 4.28978 3.08697 3.5C3.08697 2.02724 4.2721 0.833336 5.73403 0.833336C6.41199 0.833336 7.03042 1.09009 7.49874 1.51235M9.26344 8.83334C7.80151 8.83334 6.61638 7.63943 6.61638 6.16667C6.61638 4.69391 7.80151 3.5 9.26344 3.5C10.7254 3.5 11.9105 4.69391 11.9105 6.16667C11.9105 7.63943 10.7254 8.83334 9.26344 8.83334Z" stroke="white" stroke-width="1.25" stroke-linecap="round" stroke-linejoin="round"/>
</svg>
