<svg width="360" height="98" viewBox="0 0 360 98" fill="none" xmlns="http://www.w3.org/2000/svg">
<g filter="url(#filter0_b_31_1153)">
<path d="M0 26C0 21.5817 3.58172 18 8 18H352C356.418 18 360 21.5817 360 26V98H0V26Z" fill="url(#paint0_linear_31_1153)" fill-opacity="0.5"/>
<rect x="40" y="28" width="280" height="50" rx="16" fill="#2F5B6C"/>
<path d="M80 78.0001C80 78 80 78 80.0001 78H121C121 78 121 78 121 78.0001H80Z" fill="#55A6C4"/>
<path d="M110.5 59.3283V52.5388C110.5 51.8849 110.499 51.5577 110.418 51.2535C110.346 50.9838 110.228 50.7286 110.068 50.498C109.888 50.2378 109.637 50.022 109.134 49.5914L103.134 44.4515C102.201 43.6521 101.734 43.2525 101.209 43.1005C100.746 42.9665 100.253 42.9665 99.7905 43.1005C99.2658 43.2524 98.7998 43.6516 97.868 44.4498L91.866 49.5914C91.3633 50.022 91.1126 50.2378 90.9321 50.498C90.7722 50.7286 90.6532 50.9838 90.5812 51.2535C90.5 51.5577 90.5 51.8849 90.5 52.5388V59.3283C90.5 60.4687 90.5 61.0387 90.6903 61.4885C90.944 62.0882 91.4304 62.5653 92.043 62.8137C92.5024 63 93.0848 63 94.2497 63C95.4145 63 95.9976 63 96.457 62.8137C97.0696 62.5653 97.5558 62.0883 97.8096 61.4886C97.9999 61.0388 98 60.4686 98 59.3282V58.1044C98 56.7526 99.1193 55.6568 100.5 55.6568C101.881 55.6568 103 56.7526 103 58.1044V59.3282C103 60.4686 103 61.0388 103.19 61.4886C103.444 62.0883 103.93 62.5653 104.543 62.8137C105.002 63 105.585 63 106.75 63C107.915 63 108.498 63 108.957 62.8137C109.57 62.5653 110.056 62.0882 110.31 61.4885C110.5 61.0387 110.5 60.4687 110.5 59.3283Z" stroke="#F4F4F4" stroke-width="2.5" stroke-linecap="round" stroke-linejoin="round"/>
<path d="M266.13 48.611C266.13 50.5909 264.498 52.2219 262.5 52.2219C260.502 52.2219 258.87 50.5909 258.87 48.611C258.87 46.631 260.502 45 262.5 45C264.498 45 266.13 46.631 266.13 48.611ZM254.241 60.1383C254.241 59.746 254.432 59.3243 254.931 58.8667C255.437 58.4036 256.185 57.9775 257.091 57.6161C258.903 56.8927 261.092 56.5274 262.5 56.5274C263.908 56.5274 266.096 56.8927 267.909 57.6161C268.814 57.9775 269.563 58.4036 270.068 58.8667C270.568 59.3243 270.759 59.746 270.759 60.1383V60.1384V60.1384V60.1384V60.1384V60.1385V60.1385V60.1386V60.1386V60.1387V60.1387V60.1388V60.1389V60.139V60.1391V60.1392V60.1393V60.1394V60.1395V60.1396V60.1397V60.1399V60.14V60.1402V60.1403V60.1405V60.1407V60.1408V60.141V60.1412V60.1414V60.1416V60.1419V60.1421V60.1423V60.1425V60.1428V60.1431V60.1433V60.1436V60.1439V60.1442V60.1445V60.1448V60.1451V60.1454V60.1457V60.1461V60.1464V60.1468V60.1472V60.1475V60.1479V60.1483V60.1487V60.1491V60.1495V60.15V60.1504V60.1509V60.1513V60.1518V60.1523V60.1528V60.1533V60.1538V60.1543V60.1548V60.1554V60.1559V60.1565V60.1571V60.1576V60.1582V60.1588V60.1595V60.1601V60.1607V60.1614V60.162V60.1627V60.1634V60.1641V60.1648V60.1655V60.1662V60.167V60.1677V60.1685V60.1692V60.17V60.1708V60.1716V60.1724V60.1733V60.1741V60.175V60.1759V60.1767V60.1776V60.1785V60.1795V60.1804V60.1813V60.1823V60.1833V60.1842V60.1852V60.1863V60.1873V60.1883V60.1894V60.1904V60.1915V60.1926V60.1937V60.1948V60.196V60.1971V60.1983V60.1994V60.2006V60.2018V60.203V60.2043V60.2055V60.2068V60.208V60.2093V60.2106V60.212V60.2133V60.2146V60.216V60.2174V60.2188V60.2202V60.2216V60.223V60.2245V60.226V60.2274V60.2289V60.2305V60.232V60.2335V60.2351V60.2367V60.2383V60.2399V60.2415V60.2432V60.2448V60.2465V60.2482V60.2499V60.2516V60.2534V60.2551V60.2569V60.2587V60.2605V60.2623V60.2642V60.266V60.2679V60.2698V60.2717V60.2737V60.2756V60.2776V60.2796V60.2816V60.2836V60.2856V60.2877V60.2897V60.2918V60.2939V60.2961V60.2982V60.3004V60.3026V60.3048V60.307V60.3092V60.3115V60.3138V60.316V60.3184V60.3207V60.323V60.3254V60.3278V60.3302V60.3327V60.3351V60.3376V60.3401V60.3426V60.3451V60.3476V60.3502V60.3528V60.3554V60.358V60.3607V60.3633V60.366V60.3687V60.3715V60.3742V60.377V60.3798V60.3826V60.3854V60.3883V60.3912V60.3941V60.397V60.3999V60.4029V60.4059V60.4089V60.4119V60.4149V60.418V60.4211V60.4242V60.4273V60.4305V60.4337V60.4369V60.4401V60.4433V60.4466V60.4499V60.4532V60.4565V60.4599V60.4633V60.4667V60.4701V60.4735V60.477V60.4805V60.484V60.4875V60.4911V60.4947V60.4983V60.5019V60.5056V60.5093V60.513V60.5167V60.5204V60.5242V60.528V60.5318V60.5357V60.5396V60.5435V60.5474V60.5513V60.5553V60.5593V60.5633V60.5673V60.5714V60.5755V60.5796V60.5838V60.5879V60.5921V60.5963V60.6006V60.6048V60.6091V60.6134V60.6178V60.6222V60.6266V60.631V60.6354V60.6399V60.6444V60.6489V60.6535V60.658V60.6627V60.6673V60.6719V60.6766V60.6813V60.6861V60.6908V60.6956V60.7004V60.7053V60.7101V60.715V60.72V60.7249V60.7299V60.7349V60.7399V60.745V60.7501V60.7552V60.7603V60.7655V60.7707V60.7759V60.7812V60.7865V60.7918V60.7971V60.8025V60.8079V60.8133V60.8188V60.8243V60.8298V60.8353V60.8409V60.8465V60.8521V60.8578V60.8634V60.8692V60.8749V60.8807V60.8865V60.8923V60.8982V60.9041V60.91V60.9159V60.9219V60.9279V60.9339V60.94V60.9461V60.9522V60.9584V60.9646V60.9708V60.9771V60.9833V60.9897V60.996V61.0024V61.0088V61.0152V61.0217V61.0282V61.0347V61.0413V61.0478V61.0545V61.0611V61.0678V61.0745V61.0813V61.088V61.0949V61.1017V61.1086V61.1155V61.1224V61.1294V61.1364V61.1434V61.1505V61.1576V61.1647V61.1719V61.1791V61.1863V61.1936V61.2009V61.2082V61.2156V61.223V61.2304V61.2379V61.2454V61.2529V61.2604V61.268V61.2757V61.2833V61.291V61.2988V61.3065V61.3143V61.3221V61.33V61.3379V61.3458V61.3538V61.3618V61.3698V61.3779V61.386V61.3942V61.4023V61.4105V61.4188V61.4271V61.4354V61.4437V61.4521V61.4605V61.469V61.4775V61.486V61.4946V61.5032V61.5118V61.5205V61.5292V61.5379V61.5467V61.5555V61.5644V61.5732V61.5822V61.5911V61.6001V61.6091V61.6182V61.6273V61.6364V61.6456V61.6548V61.6641V61.6734V61.6827V61.6921V61.7015V61.7109V61.7204V61.7299V61.7394V61.749V61.7586V61.7683V61.778V61.7877V61.7975V61.8073V61.8172V61.827V61.837V61.8469V61.8569V61.867V61.8771V61.8872V61.8973V61.9075V61.9178V61.928V61.9384V61.9487V61.9591V61.9695V61.98V61.9905V62.001V62.0116V62.0223V62.0329V62.0436V62.0544V62.0652V62.076V62.0868V62.0977V62.1087V62.1197V62.1261C270.718 62.1454 270.667 62.1673 270.605 62.1912C270.2 62.3465 269.562 62.4958 268.718 62.6219C267.048 62.8714 264.786 63 262.5 63C260.213 63 257.952 62.8714 256.282 62.6219C255.438 62.4958 254.799 62.3465 254.395 62.1912C254.333 62.1673 254.282 62.1454 254.241 62.1261V62.1197V62.1087V62.0977V62.0868V62.076V62.0652V62.0544V62.0436V62.0329V62.0223V62.0116V62.001V61.9905V61.98V61.9695V61.9591V61.9487V61.9384V61.928V61.9178V61.9075V61.8973V61.8872V61.8771V61.867V61.8569V61.8469V61.837V61.827V61.8172V61.8073V61.7975V61.7877V61.778V61.7683V61.7586V61.749V61.7394V61.7299V61.7204V61.7109V61.7015V61.6921V61.6827V61.6734V61.6641V61.6548V61.6456V61.6364V61.6273V61.6182V61.6091V61.6001V61.5911V61.5822V61.5732V61.5644V61.5555V61.5467V61.5379V61.5292V61.5205V61.5118V61.5032V61.4946V61.486V61.4775V61.469V61.4605V61.4521V61.4437V61.4354V61.4271V61.4188V61.4105V61.4023V61.3942V61.386V61.3779V61.3698V61.3618V61.3538V61.3458V61.3379V61.33V61.3221V61.3143V61.3065V61.2988V61.291V61.2833V61.2757V61.268V61.2604V61.2529V61.2454V61.2379V61.2304V61.223V61.2156V61.2082V61.2009V61.1936V61.1863V61.1791V61.1719V61.1647V61.1576V61.1505V61.1434V61.1364V61.1294V61.1224V61.1155V61.1086V61.1017V61.0949V61.088V61.0813V61.0745V61.0678V61.0611V61.0545V61.0478V61.0413V61.0347V61.0282V61.0217V61.0152V61.0088V61.0024V60.996V60.9897V60.9833V60.9771V60.9708V60.9646V60.9584V60.9522V60.9461V60.94V60.9339V60.9279V60.9219V60.9159V60.91V60.9041V60.8982V60.8923V60.8865V60.8807V60.8749V60.8692V60.8634V60.8578V60.8521V60.8465V60.8409V60.8353V60.8298V60.8243V60.8188V60.8133V60.8079V60.8025V60.7971V60.7918V60.7865V60.7812V60.7759V60.7707V60.7655V60.7603V60.7552V60.7501V60.745V60.7399V60.7349V60.7299V60.7249V60.72V60.715V60.7101V60.7053V60.7004V60.6956V60.6908V60.6861V60.6813V60.6766V60.6719V60.6673V60.6627V60.658V60.6535V60.6489V60.6444V60.6399V60.6354V60.631V60.6266V60.6222V60.6178V60.6134V60.6091V60.6048V60.6006V60.5963V60.5921V60.5879V60.5838V60.5796V60.5755V60.5714V60.5673V60.5633V60.5593V60.5553V60.5513V60.5474V60.5435V60.5396V60.5357V60.5318V60.528V60.5242V60.5204V60.5167V60.513V60.5093V60.5056V60.5019V60.4983V60.4947V60.4911V60.4875V60.484V60.4805V60.477V60.4735V60.4701V60.4667V60.4633V60.4599V60.4565V60.4532V60.4499V60.4466V60.4433V60.4401V60.4369V60.4337V60.4305V60.4273V60.4242V60.4211V60.418V60.4149V60.4119V60.4089V60.4059V60.4029V60.3999V60.397V60.3941V60.3912V60.3883V60.3854V60.3826V60.3798V60.377V60.3742V60.3715V60.3687V60.366V60.3633V60.3607V60.358V60.3554V60.3528V60.3502V60.3476V60.3451V60.3426V60.3401V60.3376V60.3351V60.3327V60.3302V60.3278V60.3254V60.323V60.3207V60.3184V60.316V60.3138V60.3115V60.3092V60.307V60.3048V60.3026V60.3004V60.2982V60.2961V60.2939V60.2918V60.2897V60.2877V60.2856V60.2836V60.2816V60.2796V60.2776V60.2756V60.2737V60.2717V60.2698V60.2679V60.266V60.2642V60.2623V60.2605V60.2587V60.2569V60.2551V60.2534V60.2516V60.2499V60.2482V60.2465V60.2448V60.2432V60.2415V60.2399V60.2383V60.2367V60.2351V60.2335V60.232V60.2305V60.2289V60.2274V60.226V60.2245V60.223V60.2216V60.2202V60.2188V60.2174V60.216V60.2146V60.2133V60.212V60.2106V60.2093V60.208V60.2068V60.2055V60.2043V60.203V60.2018V60.2006V60.1994V60.1983V60.1971V60.196V60.1948V60.1937V60.1926V60.1915V60.1904V60.1894V60.1883V60.1873V60.1863V60.1852V60.1842V60.1833V60.1823V60.1813V60.1804V60.1795V60.1785V60.1776V60.1767V60.1759V60.175V60.1741V60.1733V60.1724V60.1716V60.1708V60.17V60.1692V60.1685V60.1677V60.167V60.1662V60.1655V60.1648V60.1641V60.1634V60.1627V60.162V60.1614V60.1607V60.1601V60.1595V60.1588V60.1582V60.1576V60.1571V60.1565V60.1559V60.1554V60.1548V60.1543V60.1538V60.1533V60.1528V60.1523V60.1518V60.1513V60.1509V60.1504V60.15V60.1495V60.1491V60.1487V60.1483V60.1479V60.1475V60.1472V60.1468V60.1464V60.1461V60.1457V60.1454V60.1451V60.1448V60.1445V60.1442V60.1439V60.1436V60.1433V60.1431V60.1428V60.1425V60.1423V60.1421V60.1419V60.1416V60.1414V60.1412V60.141V60.1408V60.1407V60.1405V60.1403V60.1402V60.14V60.1399V60.1397V60.1396V60.1395V60.1394V60.1393V60.1392V60.1391V60.139V60.1389V60.1388V60.1387V60.1387V60.1386V60.1386V60.1385V60.1385V60.1384V60.1384V60.1384V60.1384V60.1383Z" fill="#B8FE22" stroke="#B8FE22" stroke-width="2"/>
<path d="M245 78C245 75.7909 246.791 74 249 74H276C278.209 74 280 75.7909 280 78H245Z" fill="#B8FE22"/>
<rect x="148" width="64.5903" height="64" rx="32" fill="#2F5B6C"/>
<rect x="152" y="4" width="56.5903" height="56" rx="28" fill="#063434"/>
<path d="M190.958 43.8798H192.48M186.39 43.8798H183.345V39.3123M187.913 39.3123H192.48V34.7447H190.958M183.345 34.7447H186.39M168.12 39.3119C168.12 37.8931 168.12 37.1837 168.352 36.6241C168.661 35.878 169.253 35.2856 169.999 34.9765C170.559 34.7447 171.268 34.7447 172.687 34.7447C174.106 34.7447 174.816 34.7447 175.376 34.9765C176.122 35.2856 176.714 35.878 177.023 36.6241C177.255 37.1837 177.255 37.8935 177.255 39.3123C177.255 40.7311 177.255 41.4405 177.023 42.0001C176.714 42.7462 176.122 43.3388 175.376 43.6479C174.816 43.8797 174.106 43.8797 172.687 43.8797C171.268 43.8797 170.559 43.8797 169.999 43.6479C169.253 43.3388 168.661 42.7466 168.352 42.0005C168.12 41.4409 168.12 40.7307 168.12 39.3119ZM183.345 24.0867C183.345 22.6679 183.345 21.9585 183.577 21.3989C183.886 20.6527 184.479 20.0603 185.225 19.7513C185.784 19.5195 186.494 19.5195 187.913 19.5195C189.331 19.5195 190.042 19.5195 190.601 19.7513C191.347 20.0603 191.939 20.6527 192.249 21.3989C192.48 21.9585 192.48 22.6683 192.48 24.0871C192.48 25.5059 192.48 26.2153 192.249 26.7749C191.939 27.521 191.347 28.1136 190.601 28.4227C190.042 28.6545 189.331 28.6545 187.913 28.6545C186.494 28.6545 185.784 28.6545 185.225 28.4227C184.479 28.1136 183.886 27.5214 183.577 26.7753C183.345 26.2157 183.345 25.5055 183.345 24.0867ZM168.12 24.0867C168.12 22.6679 168.12 21.9585 168.352 21.3989C168.661 20.6527 169.253 20.0603 169.999 19.7513C170.559 19.5195 171.268 19.5195 172.687 19.5195C174.106 19.5195 174.816 19.5195 175.376 19.7513C176.122 20.0603 176.714 20.6527 177.023 21.3989C177.255 21.9585 177.255 22.6683 177.255 24.0871C177.255 25.5059 177.255 26.2153 177.023 26.7749C176.714 27.521 176.122 28.1136 175.376 28.4227C174.816 28.6545 174.106 28.6545 172.687 28.6545C171.268 28.6545 170.559 28.6545 169.999 28.4227C169.253 28.1136 168.661 27.5214 168.352 26.7753C168.12 26.2157 168.12 25.5055 168.12 24.0867Z" stroke="white" stroke-width="2" stroke-linecap="round" stroke-linejoin="round"/>
<path d="M170.817 15.475L164.849 15.2986C164.297 15.2822 163.836 15.7165 163.819 16.2685L163.621 22.986" stroke="#F4F4F4" stroke-width="1.5" stroke-linecap="round"/>
<path d="M189.774 15.475L195.742 15.2986C196.294 15.2822 196.755 15.7165 196.771 16.2685L196.97 22.986" stroke="#F4F4F4" stroke-width="1.5" stroke-linecap="round"/>
<path d="M189.774 48.525L195.742 48.7014C196.294 48.7178 196.755 48.2835 196.771 47.7315L196.97 41.014" stroke="#F4F4F4" stroke-width="1.5" stroke-linecap="round"/>
<path d="M170.817 48.525L164.849 48.7014C164.297 48.7178 163.836 48.2835 163.819 47.7315L163.621 41.014" stroke="#F4F4F4" stroke-width="1.5" stroke-linecap="round"/>
</g>
<defs>
<filter id="filter0_b_31_1153" x="-5" y="-5" width="370" height="108" filterUnits="userSpaceOnUse" color-interpolation-filters="sRGB">
<feFlood flood-opacity="0" result="BackgroundImageFix"/>
<feGaussianBlur in="BackgroundImageFix" stdDeviation="2.5"/>
<feComposite in2="SourceAlpha" operator="in" result="effect1_backgroundBlur_31_1153"/>
<feBlend mode="normal" in="SourceGraphic" in2="effect1_backgroundBlur_31_1153" result="shape"/>
</filter>
<linearGradient id="paint0_linear_31_1153" x1="180" y1="98" x2="180" y2="18" gradientUnits="userSpaceOnUse">
<stop offset="0.524"/>
<stop offset="1" stop-opacity="0"/>
</linearGradient>
</defs>
</svg>
