<svg width="360" height="98" viewBox="0 0 360 98" fill="none" xmlns="http://www.w3.org/2000/svg">
<g filter="url(#filter0_b_31_1041)">
<path d="M0 26C0 21.5817 3.58172 18 8 18H352C356.418 18 360 21.5817 360 26V98H0V26Z" fill="url(#paint0_linear_31_1041)" fill-opacity="0.5"/>
<rect x="40" y="28" width="280" height="50" rx="15" fill="#2F5B6C"/>
<path d="M80 78.0001C80 78 80 78 80.0001 78H121C121 78 121 78 121 78.0001H80Z" fill="#55A6C4"/>
<path d="M110.5 59.3283V52.5388C110.5 51.8849 110.499 51.5577 110.418 51.2535C110.346 50.9838 110.228 50.7286 110.068 50.498C109.888 50.2378 109.637 50.022 109.134 49.5914L103.134 44.4515C102.201 43.6521 101.734 43.2525 101.209 43.1005C100.746 42.9665 100.253 42.9665 99.7905 43.1005C99.2658 43.2524 98.7998 43.6516 97.868 44.4498L91.866 49.5914C91.3633 50.022 91.1126 50.2378 90.9321 50.498C90.7722 50.7286 90.6532 50.9838 90.5812 51.2535C90.5 51.5577 90.5 51.8849 90.5 52.5388V59.3283C90.5 60.4687 90.5 61.0387 90.6903 61.4885C90.944 62.0882 91.4304 62.5653 92.043 62.8137C92.5024 63 93.0848 63 94.2497 63C95.4145 63 95.9976 63 96.457 62.8137C97.0696 62.5653 97.5558 62.0883 97.8096 61.4886C97.9999 61.0388 98 60.4686 98 59.3282V58.1044C98 56.7526 99.1193 55.6568 100.5 55.6568C101.881 55.6568 103 56.7526 103 58.1044V59.3282C103 60.4686 103 61.0388 103.19 61.4886C103.444 62.0883 103.93 62.5653 104.543 62.8137C105.002 63 105.585 63 106.75 63C107.915 63 108.498 63 108.957 62.8137C109.57 62.5653 110.056 62.0882 110.31 61.4885C110.5 61.0387 110.5 60.4687 110.5 59.3283Z" stroke="#F4F4F4" stroke-width="2.5" stroke-linecap="round" stroke-linejoin="round"/>
<path d="M245.481 71.0001C245.481 71 245.481 71 245.482 71H280.481C280.481 71 280.481 71 280.481 71.0001H245.481Z" fill="#55A6C4"/>
<path d="M266.12 47.611C266.12 49.4519 264.602 50.9719 262.741 50.9719C260.88 50.9719 259.361 49.4519 259.361 47.611C259.361 45.77 260.88 44.25 262.741 44.25C264.602 44.25 266.12 45.77 266.12 47.611ZM254.731 59.1383C254.731 58.8388 254.873 58.4792 255.341 58.0511C255.816 57.6161 256.534 57.2037 257.424 56.8483C259.207 56.1367 261.364 55.7774 262.741 55.7774C264.117 55.7774 266.274 56.1367 268.057 56.8483C268.947 57.2037 269.665 57.6161 270.14 58.0511C270.608 58.4792 270.75 58.8388 270.75 59.1383V59.1384V59.1384V59.1384V59.1384V59.1385V59.1385V59.1386V59.1386V59.1387V59.1387V59.1388V59.1389V59.139V59.1391V59.1392V59.1393V59.1394V59.1395V59.1396V59.1397V59.1399V59.14V59.1402V59.1403V59.1405V59.1407V59.1408V59.141V59.1412V59.1414V59.1416V59.1419V59.1421V59.1423V59.1425V59.1428V59.1431V59.1433V59.1436V59.1439V59.1442V59.1445V59.1448V59.1451V59.1454V59.1457V59.1461V59.1464V59.1468V59.1472V59.1475V59.1479V59.1483V59.1487V59.1491V59.1495V59.15V59.1504V59.1509V59.1513V59.1518V59.1523V59.1528V59.1533V59.1538V59.1543V59.1548V59.1554V59.1559V59.1565V59.1571V59.1576V59.1582V59.1588V59.1595V59.1601V59.1607V59.1614V59.162V59.1627V59.1634V59.1641V59.1648V59.1655V59.1662V59.167V59.1677V59.1685V59.1692V59.17V59.1708V59.1716V59.1724V59.1733V59.1741V59.175V59.1759V59.1767V59.1776V59.1785V59.1795V59.1804V59.1813V59.1823V59.1833V59.1842V59.1852V59.1863V59.1873V59.1883V59.1894V59.1904V59.1915V59.1926V59.1937V59.1948V59.196V59.1971V59.1983V59.1994V59.2006V59.2018V59.203V59.2043V59.2055V59.2068V59.208V59.2093V59.2106V59.212V59.2133V59.2146V59.216V59.2174V59.2188V59.2202V59.2216V59.223V59.2245V59.226V59.2274V59.2289V59.2305V59.232V59.2335V59.2351V59.2367V59.2383V59.2399V59.2415V59.2432V59.2448V59.2465V59.2482V59.2499V59.2516V59.2534V59.2551V59.2569V59.2587V59.2605V59.2623V59.2642V59.266V59.2679V59.2698V59.2717V59.2737V59.2756V59.2776V59.2796V59.2816V59.2836V59.2856V59.2877V59.2897V59.2918V59.2939V59.2961V59.2982V59.3004V59.3026V59.3048V59.307V59.3092V59.3115V59.3138V59.316V59.3184V59.3207V59.323V59.3254V59.3278V59.3302V59.3327V59.3351V59.3376V59.3401V59.3426V59.3451V59.3476V59.3502V59.3528V59.3554V59.358V59.3607V59.3633V59.366V59.3687V59.3715V59.3742V59.377V59.3798V59.3826V59.3854V59.3883V59.3912V59.3941V59.397V59.3999V59.4029V59.4059V59.4089V59.4119V59.4149V59.418V59.4211V59.4242V59.4273V59.4305V59.4337V59.4369V59.4401V59.4433V59.4466V59.4499V59.4532V59.4565V59.4599V59.4633V59.4667V59.4701V59.4735V59.477V59.4805V59.484V59.4875V59.4911V59.4947V59.4983V59.5019V59.5056V59.5093V59.513V59.5167V59.5204V59.5242V59.528V59.5318V59.5357V59.5396V59.5435V59.5474V59.5513V59.5553V59.5593V59.5633V59.5673V59.5714V59.5755V59.5796V59.5838V59.5879V59.5921V59.5963V59.6006V59.6048V59.6091V59.6134V59.6178V59.6222V59.6266V59.631V59.6354V59.6399V59.6444V59.6489V59.6535V59.658V59.6627V59.6673V59.6719V59.6766V59.6813V59.6861V59.6908V59.6956V59.7004V59.7053V59.7101V59.715V59.72V59.7249V59.7299V59.7349V59.7399V59.745V59.7501V59.7552V59.7603V59.7655V59.7707V59.7759V59.7812V59.7865V59.7918V59.7971V59.8025V59.8079V59.8133V59.8188V59.8243V59.8298V59.8353V59.8409V59.8465V59.8521V59.8578V59.8634V59.8692V59.8749V59.8807V59.8865V59.8923V59.8982V59.9041V59.91V59.9159V59.9219V59.9279V59.9339V59.94V59.9461V59.9522V59.9584V59.9646V59.9708V59.9771V59.9833V59.9897V59.996V60.0024V60.0088V60.0152V60.0217V60.0282V60.0347V60.0413V60.0478V60.0545V60.0611V60.0678V60.0745V60.0813V60.088V60.0949V60.1017V60.1086V60.1155V60.1224V60.1294V60.1364V60.1434V60.1505V60.1576V60.1647V60.1719V60.1791V60.1863V60.1936V60.2009V60.2082V60.2156V60.223V60.2304V60.2379V60.2454V60.2529V60.2604V60.268V60.2757V60.2833V60.291V60.2988V60.3065V60.3143V60.3221V60.33V60.3379V60.3458V60.3538V60.3618V60.3698V60.3779V60.386V60.3942V60.4023V60.4105V60.4188V60.4271V60.4354V60.4437V60.4521V60.4605V60.469V60.4775V60.486V60.4946V60.5032V60.5118V60.5205V60.5292V60.5379V60.5467V60.5555V60.5644V60.5732V60.5822V60.5911V60.6001V60.6091V60.6182V60.6273V60.6364V60.6456V60.6548V60.6641V60.6734V60.6827V60.6921V60.7015V60.7109V60.7204V60.7299V60.7394V60.749V60.7586V60.7683V60.778V60.7877V60.7975V60.8073V60.8172V60.827V60.837V60.8469V60.8569V60.867V60.8771V60.8872V60.8973V60.9075V60.9178V60.928V60.9384V60.9487V60.9591V60.9601C270.37 61.1049 269.755 61.2502 268.922 61.3747C267.268 61.6217 265.02 61.75 262.741 61.75C260.461 61.75 258.213 61.6217 256.56 61.3747C255.726 61.2502 255.111 61.1049 254.731 60.9601V60.9591V60.9487V60.9384V60.928V60.9178V60.9075V60.8973V60.8872V60.8771V60.867V60.8569V60.8469V60.837V60.827V60.8172V60.8073V60.7975V60.7877V60.778V60.7683V60.7586V60.749V60.7394V60.7299V60.7204V60.7109V60.7015V60.6921V60.6827V60.6734V60.6641V60.6548V60.6456V60.6364V60.6273V60.6182V60.6091V60.6001V60.5911V60.5822V60.5732V60.5644V60.5555V60.5467V60.5379V60.5292V60.5205V60.5118V60.5032V60.4946V60.486V60.4775V60.469V60.4605V60.4521V60.4437V60.4354V60.4271V60.4188V60.4105V60.4023V60.3942V60.386V60.3779V60.3698V60.3618V60.3538V60.3458V60.3379V60.33V60.3221V60.3143V60.3065V60.2988V60.291V60.2833V60.2757V60.268V60.2604V60.2529V60.2454V60.2379V60.2304V60.223V60.2156V60.2082V60.2009V60.1936V60.1863V60.1791V60.1719V60.1647V60.1576V60.1505V60.1434V60.1364V60.1294V60.1224V60.1155V60.1086V60.1017V60.0949V60.088V60.0813V60.0745V60.0678V60.0611V60.0545V60.0478V60.0413V60.0347V60.0282V60.0217V60.0152V60.0088V60.0024V59.996V59.9897V59.9833V59.9771V59.9708V59.9646V59.9584V59.9522V59.9461V59.94V59.9339V59.9279V59.9219V59.9159V59.91V59.9041V59.8982V59.8923V59.8865V59.8807V59.8749V59.8692V59.8634V59.8578V59.8521V59.8465V59.8409V59.8353V59.8298V59.8243V59.8188V59.8133V59.8079V59.8025V59.7971V59.7918V59.7865V59.7812V59.7759V59.7707V59.7655V59.7603V59.7552V59.7501V59.745V59.7399V59.7349V59.7299V59.7249V59.72V59.715V59.7101V59.7053V59.7004V59.6956V59.6908V59.6861V59.6813V59.6766V59.6719V59.6673V59.6627V59.658V59.6535V59.6489V59.6444V59.6399V59.6354V59.631V59.6266V59.6222V59.6178V59.6134V59.6091V59.6048V59.6006V59.5963V59.5921V59.5879V59.5838V59.5796V59.5755V59.5714V59.5673V59.5633V59.5593V59.5553V59.5513V59.5474V59.5435V59.5396V59.5357V59.5318V59.528V59.5242V59.5204V59.5167V59.513V59.5093V59.5056V59.5019V59.4983V59.4947V59.4911V59.4875V59.484V59.4805V59.477V59.4735V59.4701V59.4667V59.4633V59.4599V59.4565V59.4532V59.4499V59.4466V59.4433V59.4401V59.4369V59.4337V59.4305V59.4273V59.4242V59.4211V59.418V59.4149V59.4119V59.4089V59.4059V59.4029V59.3999V59.397V59.3941V59.3912V59.3883V59.3854V59.3826V59.3798V59.377V59.3742V59.3715V59.3687V59.366V59.3633V59.3607V59.358V59.3554V59.3528V59.3502V59.3476V59.3451V59.3426V59.3401V59.3376V59.3351V59.3327V59.3302V59.3278V59.3254V59.323V59.3207V59.3184V59.316V59.3138V59.3115V59.3092V59.307V59.3048V59.3026V59.3004V59.2982V59.2961V59.2939V59.2918V59.2897V59.2877V59.2856V59.2836V59.2816V59.2796V59.2776V59.2756V59.2737V59.2717V59.2698V59.2679V59.266V59.2642V59.2623V59.2605V59.2587V59.2569V59.2551V59.2534V59.2516V59.2499V59.2482V59.2465V59.2448V59.2432V59.2415V59.2399V59.2383V59.2367V59.2351V59.2335V59.232V59.2305V59.2289V59.2274V59.226V59.2245V59.223V59.2216V59.2202V59.2188V59.2174V59.216V59.2146V59.2133V59.212V59.2106V59.2093V59.208V59.2068V59.2055V59.2043V59.203V59.2018V59.2006V59.1994V59.1983V59.1971V59.196V59.1948V59.1937V59.1926V59.1915V59.1904V59.1894V59.1883V59.1873V59.1863V59.1852V59.1842V59.1833V59.1823V59.1813V59.1804V59.1795V59.1785V59.1776V59.1767V59.1759V59.175V59.1741V59.1733V59.1724V59.1716V59.1708V59.17V59.1692V59.1685V59.1677V59.167V59.1662V59.1655V59.1648V59.1641V59.1634V59.1627V59.162V59.1614V59.1607V59.1601V59.1595V59.1588V59.1582V59.1576V59.1571V59.1565V59.1559V59.1554V59.1548V59.1543V59.1538V59.1533V59.1528V59.1523V59.1518V59.1513V59.1509V59.1504V59.15V59.1495V59.1491V59.1487V59.1483V59.1479V59.1475V59.1472V59.1468V59.1464V59.1461V59.1457V59.1454V59.1451V59.1448V59.1445V59.1442V59.1439V59.1436V59.1433V59.1431V59.1428V59.1425V59.1423V59.1421V59.1419V59.1416V59.1414V59.1412V59.141V59.1408V59.1407V59.1405V59.1403V59.1402V59.14V59.1399V59.1397V59.1396V59.1395V59.1394V59.1393V59.1392V59.1391V59.139V59.1389V59.1388V59.1387V59.1387V59.1386V59.1386V59.1385V59.1385V59.1384V59.1384V59.1384V59.1384V59.1383Z" stroke="#F4F4F4" stroke-width="2.5"/>
<rect x="148" width="64.5903" height="64" rx="32" fill="#B8FE22"/>
<rect x="152" y="4" width="56.5903" height="56" rx="28" fill="#063434"/>
<path d="M190.958 43.8798H192.48M186.39 43.8798H183.345V39.3123M187.913 39.3123H192.48V34.7447H190.958M183.345 34.7447H186.39M168.12 39.3119C168.12 37.8931 168.12 37.1837 168.352 36.6241C168.661 35.878 169.253 35.2856 169.999 34.9765C170.559 34.7447 171.268 34.7447 172.687 34.7447C174.106 34.7447 174.816 34.7447 175.376 34.9765C176.122 35.2856 176.714 35.878 177.023 36.6241C177.255 37.1837 177.255 37.8935 177.255 39.3123C177.255 40.7311 177.255 41.4405 177.023 42.0001C176.714 42.7462 176.122 43.3388 175.376 43.6479C174.816 43.8797 174.106 43.8797 172.687 43.8797C171.268 43.8797 170.559 43.8797 169.999 43.6479C169.253 43.3388 168.661 42.7466 168.352 42.0005C168.12 41.4409 168.12 40.7307 168.12 39.3119ZM183.345 24.0867C183.345 22.6679 183.345 21.9585 183.577 21.3989C183.886 20.6527 184.479 20.0603 185.225 19.7513C185.784 19.5195 186.494 19.5195 187.913 19.5195C189.331 19.5195 190.042 19.5195 190.601 19.7513C191.347 20.0603 191.939 20.6527 192.249 21.3989C192.48 21.9585 192.48 22.6683 192.48 24.0871C192.48 25.5059 192.48 26.2153 192.249 26.7749C191.939 27.521 191.347 28.1136 190.601 28.4227C190.042 28.6545 189.331 28.6545 187.913 28.6545C186.494 28.6545 185.784 28.6545 185.225 28.4227C184.479 28.1136 183.886 27.5214 183.577 26.7753C183.345 26.2157 183.345 25.5055 183.345 24.0867ZM168.12 24.0867C168.12 22.6679 168.12 21.9585 168.352 21.3989C168.661 20.6527 169.253 20.0603 169.999 19.7513C170.559 19.5195 171.268 19.5195 172.687 19.5195C174.106 19.5195 174.816 19.5195 175.376 19.7513C176.122 20.0603 176.714 20.6527 177.023 21.3989C177.255 21.9585 177.255 22.6683 177.255 24.0871C177.255 25.5059 177.255 26.2153 177.023 26.7749C176.714 27.521 176.122 28.1136 175.376 28.4227C174.816 28.6545 174.106 28.6545 172.687 28.6545C171.268 28.6545 170.559 28.6545 169.999 28.4227C169.253 28.1136 168.661 27.5214 168.352 26.7753C168.12 26.2157 168.12 25.5055 168.12 24.0867Z" stroke="#B8FE22" stroke-width="2" stroke-linecap="round" stroke-linejoin="round"/>
<path d="M170.817 15.4751L164.849 15.2986C164.297 15.2823 163.836 15.7165 163.819 16.2686L163.621 22.986" stroke="#B8FE22" stroke-width="1.5" stroke-linecap="round"/>
<path d="M189.774 15.4751L195.742 15.2986C196.294 15.2823 196.755 15.7165 196.771 16.2686L196.97 22.986" stroke="#B8FE22" stroke-width="1.5" stroke-linecap="round"/>
<path d="M189.774 48.525L195.742 48.7014C196.294 48.7178 196.755 48.2835 196.771 47.7315L196.97 41.014" stroke="#B8FE22" stroke-width="1.5" stroke-linecap="round"/>
<path d="M170.817 48.525L164.849 48.7014C164.297 48.7178 163.836 48.2835 163.819 47.7315L163.621 41.014" stroke="#B8FE22" stroke-width="1.5" stroke-linecap="round"/>
</g>
<defs>
<filter id="filter0_b_31_1041" x="-5" y="-5" width="370" height="108" filterUnits="userSpaceOnUse" color-interpolation-filters="sRGB">
<feFlood flood-opacity="0" result="BackgroundImageFix"/>
<feGaussianBlur in="BackgroundImageFix" stdDeviation="2.5"/>
<feComposite in2="SourceAlpha" operator="in" result="effect1_backgroundBlur_31_1041"/>
<feBlend mode="normal" in="SourceGraphic" in2="effect1_backgroundBlur_31_1041" result="shape"/>
</filter>
<linearGradient id="paint0_linear_31_1041" x1="180" y1="98" x2="180" y2="18" gradientUnits="userSpaceOnUse">
<stop offset="0.524"/>
<stop offset="1" stop-opacity="0"/>
</linearGradient>
</defs>
</svg>
