<svg width="378" height="40" viewBox="0 0 378 40" fill="none" xmlns="http://www.w3.org/2000/svg">
<rect x="10" width="40" height="40" rx="20" fill="#B8FE22"/>
<path d="M32.6667 13H27.3333C25 13 24 14.4 24 16.5V23.5C24 25.6 25 27 27.3333 27H32.6667C35 27 36 25.6 36 23.5V16.5C36 14.4 35 13 32.6667 13ZM27.3333 20.175H30C30.2733 20.175 30.5 20.413 30.5 20.7C30.5 20.987 30.2733 21.225 30 21.225H27.3333C27.06 21.225 26.8333 20.987 26.8333 20.7C26.8333 20.413 27.06 20.175 27.3333 20.175ZM32.6667 24.025H27.3333C27.06 24.025 26.8333 23.787 26.8333 23.5C26.8333 23.213 27.06 22.975 27.3333 22.975H32.6667C32.94 22.975 33.1667 23.213 33.1667 23.5C33.1667 23.787 32.94 24.025 32.6667 24.025ZM34.3333 18.075H33C31.9867 18.075 31.1667 17.214 31.1667 16.15V14.75C31.1667 14.463 31.3933 14.225 31.6667 14.225C31.94 14.225 32.1667 14.463 32.1667 14.75V16.15C32.1667 16.633 32.54 17.025 33 17.025H34.3333C34.6067 17.025 34.8333 17.263 34.8333 17.55C34.8333 17.837 34.6067 18.075 34.3333 18.075Z" fill="#063434"/>
<rect x="49" y="16" width="68.3333" height="8" fill="#B8FE22"/>
<circle cx="136.333" cy="20" r="20" fill="#B8FE22"/>
<path d="M133.282 19.0001L135.19 20.8151L139.013 17.1851" stroke="#063434" stroke-width="1.5" stroke-linecap="round" stroke-linejoin="round"/>
<path d="M135.158 11.8377C135.704 11.3952 136.599 11.3952 137.153 11.8377L138.404 12.8577C138.641 13.0527 139.085 13.2102 139.401 13.2102H140.747C141.586 13.2102 142.275 13.8627 142.275 14.6577V15.9327C142.275 16.2252 142.441 16.6527 142.647 16.8777L143.724 18.0627C144.191 18.5802 144.191 19.4277 143.724 19.9527L142.647 21.1377C142.441 21.3627 142.275 21.7827 142.275 22.0827V23.3577C142.275 24.1527 141.586 24.8052 140.747 24.8052H139.401C139.093 24.8052 138.641 24.9627 138.404 25.1577L137.153 26.1777C136.607 26.6202 135.712 26.6202 135.158 26.1777L133.907 25.1577C133.67 24.9627 133.226 24.8052 132.91 24.8052H131.54C130.701 24.8052 130.012 24.1527 130.012 23.3577V22.0752C130.012 21.7827 129.846 21.3627 129.648 21.1377L128.579 19.9452C128.12 19.4277 128.12 18.5877 128.579 18.0702L129.648 16.8777C129.846 16.6527 130.012 16.2327 130.012 15.9402V14.6502C130.012 13.8552 130.701 13.2027 131.54 13.2027H132.91C133.218 13.2027 133.67 13.0452 133.907 12.8502L135.158 11.8377Z" stroke="#063434" stroke-width="1.5" stroke-linecap="round" stroke-linejoin="round"/>
<rect x="155.333" y="16" width="68.3333" height="8" fill="#B8FE22"/>
<rect x="222.667" y="0.5" width="39" height="39" rx="19.5" fill="#B8FE22"/>
<path d="M234.167 17.6429C235.015 17.6429 235.829 17.3117 236.429 16.7223C237.029 16.1329 237.367 15.3335 237.367 14.5M246.967 25.5C246.967 24.6665 247.304 23.8671 247.904 23.2777C248.504 22.6883 249.318 22.3571 250.167 22.3571M234.167 16.0714C234.167 15.6547 234.335 15.255 234.635 14.9603C234.935 14.6656 235.342 14.5 235.767 14.5H248.567C248.991 14.5 249.398 14.6656 249.698 14.9603C249.998 15.255 250.167 15.6547 250.167 16.0714V23.9286C250.167 24.3453 249.998 24.745 249.698 25.0397C249.398 25.3344 248.991 25.5 248.567 25.5H235.767C235.342 25.5 234.935 25.3344 234.635 25.0397C234.335 24.745 234.167 24.3453 234.167 23.9286V16.0714ZM244.567 20C244.567 21.3018 243.493 22.3571 242.167 22.3571C240.842 22.3571 239.767 21.3018 239.767 20C239.767 18.6982 240.842 17.6428 242.167 17.6428C243.493 17.6428 244.567 18.6982 244.567 20Z" stroke="#063434" stroke-width="1.2" stroke-linecap="round" stroke-linejoin="round"/>
<rect x="260.667" y="16" width="68.3333" height="8" fill="#CCCCCC"/>
<rect x="328" width="40" height="40" rx="20" fill="#CCCCCC"/>
<path d="M346.695 12C344.882 12 343.383 13.4357 343.383 15.2432C343.383 17.0508 344.882 18.4865 346.695 18.4865C348.507 18.4865 350.006 17.0508 350.006 15.2432C350.006 13.4357 348.507 12 346.695 12ZM344.68 15.2432C344.68 14.1846 345.566 13.2973 346.695 13.2973C347.823 13.2973 348.709 14.1846 348.709 15.2432C348.709 16.3018 347.823 17.1892 346.695 17.1892C345.566 17.1892 344.68 16.3018 344.68 15.2432ZM344.175 20.3114C344.231 20.2958 344.35 20.3018 344.507 20.403C344.95 20.6902 345.718 21.069 346.695 21.069C347.671 21.069 348.439 20.6902 348.883 20.403C349.038 20.3018 349.159 20.2958 349.214 20.3105C349.338 20.3451 349.461 20.382 349.584 20.4212L350.436 20.6936C350.598 20.7403 350.772 20.7219 350.921 20.6424C351.07 20.563 351.182 20.4287 351.233 20.268C351.285 20.1073 351.271 19.9329 351.196 19.7818C351.121 19.6307 350.99 19.5147 350.831 19.4586L349.98 19.1853C349.84 19.1409 349.7 19.0991 349.558 19.0599C349.029 18.9146 348.526 19.0884 348.178 19.3142C347.858 19.5217 347.336 19.7717 346.695 19.7717C346.055 19.7717 345.531 19.5209 345.211 19.3133C344.863 19.0884 344.36 18.9146 343.831 19.0599C343.69 19.0991 343.549 19.1409 343.409 19.1853L342.558 19.4586C342.075 19.6098 341.633 19.8716 341.268 20.2232C340.904 20.5748 340.626 21.0065 340.457 21.4841C340.392 21.6744 340.365 21.8577 340.349 22.0065L340.013 25.1831C339.874 26.2011 340.439 27.2484 341.553 27.507C342.59 27.7475 344.258 28 346.695 28C346.867 28 347.032 27.9317 347.153 27.81C347.275 27.6884 347.343 27.5234 347.343 27.3514C347.343 27.1793 347.275 27.0143 347.153 26.8927C347.032 26.771 346.867 26.7027 346.695 26.7027C344.347 26.7027 342.779 26.4605 341.847 26.2443C341.478 26.1578 341.235 25.8093 341.299 25.3535L341.301 25.3423L341.639 22.1423C341.651 22.035 341.665 21.9624 341.684 21.9079C341.786 21.6208 341.955 21.3616 342.175 21.1508C342.395 20.9401 342.662 20.7835 342.953 20.6936L343.805 20.4212C343.928 20.382 344.051 20.3459 344.175 20.3114ZM355.802 23.9178C355.865 23.8585 355.917 23.7868 355.952 23.7073C355.987 23.6277 356.007 23.5418 356.008 23.4547C356.01 23.3676 355.994 23.2811 355.961 23.2003C355.928 23.1196 355.88 23.0462 355.818 22.9846C355.757 22.923 355.683 22.8745 355.602 22.8418C355.522 22.8092 355.435 22.7932 355.348 22.7947C355.261 22.7963 355.175 22.8153 355.096 22.8508C355.016 22.8862 354.944 22.9374 354.885 23.0011L351.884 26.0022L350.613 24.7308C350.553 24.6671 350.482 24.616 350.402 24.5805C350.322 24.5451 350.237 24.526 350.149 24.5245C350.062 24.5229 349.976 24.5389 349.895 24.5716C349.814 24.6042 349.741 24.6528 349.679 24.7143C349.618 24.7759 349.569 24.8493 349.537 24.9301C349.504 25.0108 349.488 25.0974 349.489 25.1845C349.491 25.2715 349.51 25.3574 349.545 25.437C349.581 25.5166 349.632 25.5882 349.696 25.6476L351.884 27.8357L355.802 23.9178Z" fill="#666666"/>
</svg>
