<svg width="40" height="40" viewBox="0 0 40 40" fill="none" xmlns="http://www.w3.org/2000/svg">
<rect width="40" height="40" rx="20" fill="#55A6C4"/>
<path d="M13 13H27M15.5455 13V16.1818C15.5455 18.0909 18.7273 18.2405 18.7273 20C18.7273 21.7595 15.5455 21.9091 15.5455 23.8182V27M24.4545 13V16.1818C24.4545 18.0909 21.2727 18.2405 21.2727 20C21.2727 21.7595 24.4545 21.9091 24.4545 23.8182V27M13 27H27M18.7273 15.2273H21.2727V16.1818C21.2727 16.8182 20 17.4545 20 17.4545C20 17.4545 18.7273 16.8182 18.7273 16.1818V15.2273ZM17.4545 25.7273C17.4545 24.4545 20 23.1818 20 23.1818C20 23.1818 22.5455 24.4545 22.5455 25.7273V27H17.4545V25.7273Z" stroke="#F4F4F4" stroke-width="1.5"/>
</svg>
