<svg width="16" height="16" viewBox="0 0 16 16" fill="none" xmlns="http://www.w3.org/2000/svg">
<path d="M14.6663 11.6667H9.99967M3.33301 11.6667H1.33301M14.6663 4.33334H12.6663M5.99967 4.33334H1.33301M4.66634 9.66668H8.66634C9.39967 9.66668 9.99967 10 9.99967 11V12.3333C9.99967 13.3333 9.39967 13.6667 8.66634 13.6667H4.66634C3.93301 13.6667 3.33301 13.3333 3.33301 12.3333V11C3.33301 10 3.93301 9.66668 4.66634 9.66668ZM7.33301 2.33334H11.333C12.0663 2.33334 12.6663 2.66668 12.6663 3.66668V5.00001C12.6663 6.00001 12.0663 6.33334 11.333 6.33334H7.33301C6.59967 6.33334 5.99967 6.00001 5.99967 5.00001V3.66668C5.99967 2.66668 6.59967 2.33334 7.33301 2.33334Z" stroke="#F4F4F4" stroke-miterlimit="10" stroke-linecap="round" stroke-linejoin="round"/>
</svg>
