<svg width="21" height="24" viewBox="0 0 21 24" fill="none" xmlns="http://www.w3.org/2000/svg">
<path d="M5.81269 7.48926V6.47884C5.81269 4.13509 7.6981 1.83301 10.0419 1.61426C10.6931 1.55028 11.3505 1.62335 11.9718 1.82878C12.593 2.0342 13.1644 2.36743 13.6491 2.80701C14.1339 3.2466 14.5212 3.7828 14.7862 4.3811C15.0511 4.97941 15.1879 5.62657 15.1877 6.28093V7.71842M7.37519 22.4163H13.6252C17.8127 22.4163 18.5627 20.7393 18.7814 18.6976L19.5627 12.4476C19.8439 9.90592 19.1148 7.83301 14.6669 7.83301H6.33352C1.8856 7.83301 1.15644 9.90592 1.43769 12.4476L2.21894 18.6976C2.43769 20.7393 3.18769 22.4163 7.37519 22.4163Z" stroke="#B8FE22" stroke-width="2" stroke-miterlimit="10" stroke-linecap="round" stroke-linejoin="round"/>
</svg>
