<svg width="52" height="51" viewBox="0 0 52 51" fill="none" xmlns="http://www.w3.org/2000/svg">
<rect x="0.5" width="51" height="51" rx="25.5" fill="#56B33D"/>
<path d="M20.7207 25.4999L24.2353 29.029L31.279 21.9707" stroke="white" stroke-width="2" stroke-linecap="round" stroke-linejoin="round"/>
<path d="M24.177 11.573C25.1832 10.7126 26.8311 10.7126 27.852 11.573L30.1561 13.5564C30.5936 13.9355 31.4103 14.2418 31.9936 14.2418H34.4728C36.0186 14.2418 37.2874 15.5105 37.2874 17.0564V19.5355C37.2874 20.1043 37.5936 20.9355 37.9728 21.373L39.9561 23.6772C40.8165 24.6835 40.8165 26.3314 39.9561 27.3522L37.9728 29.6564C37.5936 30.0939 37.2874 30.9105 37.2874 31.4939V33.973C37.2874 35.5189 36.0186 36.7876 34.4728 36.7876H31.9936C31.4249 36.7876 30.5936 37.0939 30.1561 37.473L27.852 39.4564C26.8457 40.3168 25.1978 40.3168 24.177 39.4564L21.8728 37.473C21.4353 37.0939 20.6186 36.7876 20.0353 36.7876H17.5124C15.9665 36.7876 14.6978 35.5189 14.6978 33.973V31.4793C14.6978 30.9105 14.3915 30.0939 14.027 29.6564L12.0582 27.3376C11.2124 26.3314 11.2124 24.698 12.0582 23.6918L14.027 21.373C14.3915 20.9355 14.6978 20.1189 14.6978 19.5501V17.0418C14.6978 15.496 15.9665 14.2272 17.5124 14.2272H20.0353C20.604 14.2272 21.4353 13.921 21.8728 13.5418L24.177 11.573Z" stroke="white" stroke-width="2" stroke-linecap="round" stroke-linejoin="round"/>
</svg>
