<svg width="19" height="18" viewBox="0 0 19 18" fill="none" xmlns="http://www.w3.org/2000/svg">
<path d="M1.13196 18C0.964561 18 0.805503 17.9331 0.688321 17.8159C0.529288 17.6569 0.462368 17.4226 0.52096 17.205L1.57561 13.2636C0.872514 11.9582 0.504202 10.4853 0.504202 8.9958C0.504202 4.03348 4.53862 0 9.50209 0C14.4656 0 18.5 4.03348 18.5 8.9958C18.5 13.9582 14.4656 17.9916 9.50209 17.9916C7.98709 17.9916 6.50563 17.6151 5.18314 16.8954L1.29938 17.9749C1.24078 17.9916 1.19056 18 1.13196 18ZM5.26682 15.5983C5.37563 15.5983 5.48445 15.6319 5.58489 15.6821C6.76509 16.3767 8.12101 16.7448 9.50209 16.7448C13.7709 16.7448 17.2445 13.272 17.2445 9.00417C17.2445 4.73642 13.7709 1.26361 9.50209 1.26361C5.23334 1.26361 1.75973 4.73642 1.75973 9.00417C1.75973 10.3682 2.11963 11.6987 2.79762 12.8703C2.88132 13.0125 2.90645 13.1883 2.86459 13.3473L2.02758 16.477L5.10779 15.6234C5.15801 15.6067 5.2166 15.5983 5.26682 15.5983Z" fill="#121212"/>
<path d="M11.7953 13.8282C11.2764 13.8282 10.7407 13.7111 10.1799 13.4684C9.65257 13.2425 9.12525 12.9412 8.61467 12.5646C8.11246 12.1964 7.61868 11.778 7.16669 11.3261C6.71471 10.8659 6.29616 10.3805 5.92787 9.87845C5.55121 9.35125 5.24989 8.83242 5.03226 8.32196C4.7979 7.76966 4.68073 7.22572 4.68073 6.70689C4.68073 6.33869 4.74767 5.98723 4.87322 5.66087C5.00714 5.31777 5.22478 5.00814 5.50936 4.74036C6.04505 4.21316 6.81514 4.02071 7.42616 4.31359C7.63541 4.40564 7.81119 4.55627 7.94514 4.75711L8.916 6.12111C9.01644 6.255 9.09186 6.39726 9.15045 6.53952C9.21741 6.70689 9.25926 6.87427 9.25926 7.03326C9.25926 7.25084 9.20058 7.4684 9.0834 7.66087C9.00807 7.78639 8.89926 7.93702 8.75696 8.07928L8.64815 8.19644C8.69837 8.26338 8.75696 8.34706 8.84904 8.44748C9.02481 8.64832 9.21732 8.86589 9.42658 9.0751C9.63583 9.27594 9.84509 9.47677 10.0543 9.65251C10.1548 9.73619 10.2386 9.80313 10.3055 9.84497L10.4226 9.72782C10.5733 9.57719 10.724 9.46004 10.8747 9.38472C11.1509 9.20899 11.5777 9.16715 11.9544 9.32615C12.0883 9.37635 12.2222 9.45167 12.3645 9.55209L13.7624 10.5395C13.9549 10.6734 14.1055 10.8575 14.2059 11.0667C14.2896 11.2759 14.3232 11.46 14.3232 11.6525C14.3232 11.9036 14.2645 12.1462 14.1557 12.3805C14.0469 12.5981 13.9213 12.7906 13.7707 12.9663C13.5028 13.2592 13.1932 13.4768 12.8584 13.619C12.5236 13.7613 12.1636 13.8282 11.7953 13.8282ZM6.81511 5.44329C6.76489 5.44329 6.59752 5.44329 6.38827 5.65249C6.22924 5.80312 6.1204 5.96213 6.04507 6.13786C5.96974 6.3136 5.93625 6.51443 5.93625 6.71527C5.93625 7.06674 6.01994 7.4433 6.18734 7.84497C6.36312 8.26338 6.62262 8.7069 6.94068 9.15041C7.26712 9.59393 7.63541 10.0374 8.04559 10.4475C8.45572 10.8492 8.89089 11.2257 9.34288 11.5605C9.77812 11.8784 10.2218 12.1295 10.6654 12.322C11.3016 12.5981 11.8874 12.6651 12.3645 12.4642C12.5319 12.3973 12.6826 12.2801 12.8332 12.1295C12.9086 12.0458 12.9672 11.9621 13.0175 11.8533C13.0426 11.7948 13.0592 11.7278 13.0592 11.6692C13.0592 11.6525 13.0592 11.6274 13.0341 11.5772L11.6363 10.6065C11.5777 10.5646 11.5191 10.5312 11.4689 10.5144C11.4354 10.5312 11.3853 10.5563 11.2932 10.6483L10.9751 10.9663C10.7324 11.209 10.3474 11.2759 10.0377 11.1672L9.88702 11.1002C9.69451 10.9998 9.4768 10.8492 9.23406 10.64C8.9997 10.4391 8.77379 10.2299 8.53105 9.9956C8.29669 9.75292 8.08744 9.52698 7.88655 9.29267C7.66889 9.03326 7.51822 8.82405 7.41778 8.64832L7.32573 8.43075C7.30062 8.34706 7.29221 8.25501 7.29221 8.17133C7.29221 7.93702 7.37595 7.72782 7.53498 7.56045L7.85307 7.23409C7.94514 7.14204 7.97862 7.09184 7.99536 7.05837C7.97025 6.99979 7.93677 6.94957 7.89492 6.891L6.91555 5.51025L6.81511 5.44329Z" fill="#121212"/>
</svg>
